<?xml version="1.0" standalone="no"?>
<!DOCTYPE svg PUBLIC "-//W3C//DTD SVG 20010904//EN"
 "http://www.w3.org/TR/2001/REC-SVG-20010904/DTD/svg10.dtd">
<svg version="1.0" xmlns="http://www.w3.org/2000/svg"
 width="1080.000000pt" height="2400.000000pt" viewBox="0 0 1080.000000 2400.000000"
 preserveAspectRatio="xMidYMid meet">
<metadata>
Created by potrace 1.16, written by Peter Selinger 2001-2019
</metadata>
<g transform="translate(0.000000,2400.000000) scale(0.100000,-0.100000)"
fill="#000000" stroke="none">
<path d="M0 12000 l0 -12000 5400 0 5400 0 0 12000 0 12000 -5400 0 -5400 0 0
-12000z m7396 11522 c57 -29 77 -54 61 -76 -12 -16 -14 -16 -37 2 -51 40 -93
55 -155 55 -62 0 -104 -15 -155 -55 -23 -18 -25 -18 -37 -2 -16 22 4 47 61 76
77 40 185 39 262 0z m-3259 -48 c109 -63 114 -68 111 -96 -3 -27 -15 -37 -113
-94 -169 -98 -175 -94 -175 96 0 191 5 194 177 94z m-522 42 c40 -17 43 -26
17 -49 -12 -11 -22 -13 -32 -7 -26 17 -68 11 -97 -14 -22 -19 -28 -32 -28 -66
0 -76 80 -116 139 -69 36 29 33 39 -14 39 -38 0 -40 2 -40 30 l0 30 70 0 70 0
0 -36 c0 -57 -26 -100 -74 -124 -65 -31 -115 -23 -168 27 -56 53 -60 135 -11
194 47 55 105 71 168 45z m5020 -136 l0 -145 -30 0 -30 0 -3 134 c-1 74 0 141
3 149 3 8 16 12 32 10 l28 -3 0 -145z m1335 130 c27 -27 33 -56 29 -159 -6
-134 14 -125 -309 -129 l-270 -3 -26 26 c-25 25 -26 29 -22 136 4 159 -16 149
314 149 250 0 265 -1 284 -20z m-7360 -35 c40 -41 43 -46 28 -61 -14 -14 -18
-13 -47 18 l-31 33 -42 -43 -43 -42 43 -42 43 -43 24 28 c25 28 49 35 61 16 7
-12 -73 -99 -91 -99 -6 0 -33 23 -60 51 l-50 50 -5 -38 c-3 -25 -10 -38 -20
-38 -12 0 -15 19 -15 115 0 96 3 115 15 115 10 0 17 -13 20 -38 l5 -38 50 50
c27 28 54 51 60 51 6 0 31 -20 55 -45z m3658 33 c8 -8 12 -51 12 -128 0 -77
-4 -120 -12 -128 -7 -7 -39 -12 -73 -12 -34 0 -66 5 -73 12 -8 8 -12 51 -12
128 0 77 4 120 12 128 7 7 39 12 73 12 34 0 66 -5 73 -12z m-5328 -82 c0 -75
2 -84 20 -89 26 -7 26 -27 1 -34 -12 -3 -21 -15 -23 -32 -4 -35 -32 -34 -36 2
-3 26 -5 27 -63 27 -50 0 -59 3 -59 18 1 24 127 192 145 192 12 0 15 -16 15
-84z m300 0 c0 -75 2 -84 20 -89 26 -7 26 -27 1 -34 -12 -3 -21 -15 -23 -32
-4 -35 -32 -34 -36 2 -3 26 -5 27 -63 27 -50 0 -59 3 -59 18 1 24 127 192 145
192 12 0 15 -16 15 -84z m210 68 c0 -16 -96 -232 -111 -248 -4 -5 -15 -6 -24
-3 -13 6 -7 23 35 107 27 55 50 104 50 110 0 6 -26 10 -59 10 -58 0 -79 9 -66
30 3 6 44 10 91 10 70 0 84 -3 84 -16z m1536 -30 l53 -46 55 47 c38 32 62 46
78 43 23 -3 23 -5 23 -123 l0 -120 -42 -3 -43 -3 0 51 0 51 -35 -27 -35 -26
-35 26 -35 27 0 -51 0 -51 -42 3 -43 3 -3 109 c-1 61 0 116 2 123 10 25 48 13
102 -33z m4714 24 c24 -26 26 -51 5 -68 -23 -19 -18 -36 22 -75 41 -39 53 -42
89 -18 24 15 27 15 52 -4 31 -23 39 -48 22 -68 -52 -62 -270 111 -270 214 0
20 24 40 47 41 7 0 21 -10 33 -22z m-5589 -47 c37 -38 38 -79 3 -115 -20 -19
-37 -26 -65 -26 -38 0 -39 -1 -39 -36 0 -47 -13 -42 -77 34 -62 73 -66 100
-24 143 27 27 35 29 101 29 66 0 74 -2 101 -29z m5249 -1 c14 -7 33 -19 43
-28 16 -14 16 -17 1 -33 -16 -17 -18 -17 -51 8 -27 20 -45 26 -88 26 -43 0
-61 -6 -88 -26 -33 -25 -35 -25 -51 -8 -15 16 -15 19 1 33 62 54 161 66 233
28z m696 -77 c7 -10 14 -44 14 -75 l0 -58 -60 0 -60 0 1 75 1 75 45 0 c32 0
50 -5 59 -17z m517 -1325 c-60 -60 -69 -66 -82 -53 -13 13 -11 19 24 55 l39
40 -212 0 -212 0 0 25 0 25 212 0 212 0 -39 40 c-33 34 -36 41 -25 55 12 14
21 8 82 -52 l68 -67 -67 -68z m-7630 40 c97 97 103 101 120 85 16 -17 12 -23
-85 -120 l-103 -103 103 -103 c97 -97 101 -103 85 -120 -17 -16 -23 -12 -120
85 l-103 103 -103 -103 c-97 -97 -103 -101 -120 -85 -16 17 -12 23 85 120
l103 103 -103 103 c-97 97 -101 103 -85 120 17 16 23 12 120 -85 l103 -103
103 103z m1830 25 c28 -14 67 -67 67 -90 0 -27 -45 -13 -73 22 -24 30 -34 35
-72 35 -36 0 -48 -5 -68 -30 -46 -54 -47 -146 -2 -194 19 -20 34 -26 69 -26
37 0 48 5 69 30 16 19 35 30 51 30 31 0 32 -5 6 -47 -63 -103 -210 -90 -269
25 -17 32 -15 145 2 179 44 84 133 111 220 66z m-933 -119 l54 -135 21 48 c12
26 37 87 56 135 33 85 35 88 67 88 l32 0 0 -175 0 -175 -25 0 -25 0 0 123 -1
122 -50 -122 c-44 -106 -54 -123 -74 -123 -20 0 -29 16 -71 120 l-49 120 -3
-120 -3 -120 -24 0 -25 0 0 175 0 175 33 0 c32 0 32 -1 87 -136z m1981 -33
c33 -90 59 -168 59 -173 0 -4 -13 -8 -29 -8 -25 0 -30 5 -41 45 l-13 45 -67 0
-68 0 -14 -42 c-13 -38 -19 -43 -47 -46 -18 -2 -32 1 -30 5 2 5 31 85 64 177
l60 167 34 -3 33 -3 59 -164z m1070 0 c33 -90 59 -168 59 -173 0 -4 -13 -8
-29 -8 -25 0 -30 5 -41 45 l-13 45 -67 0 -68 0 -14 -42 c-13 -38 -19 -43 -47
-46 -18 -2 -32 1 -30 5 2 5 31 85 64 177 l60 167 34 -3 33 -3 59 -164z m609
108 c0 -55 1 -59 16 -45 41 42 117 25 140 -30 8 -20 14 -70 14 -124 l0 -90
-30 0 -30 0 0 94 c0 73 -4 98 -16 110 -20 20 -43 20 -72 0 -20 -14 -22 -23
-22 -110 l0 -94 -30 0 -30 0 0 175 0 175 30 0 30 0 0 -61z m-2412 4 c3 -27 7
-33 28 -33 17 0 24 -5 24 -20 0 -15 -7 -20 -25 -20 -25 0 -25 -1 -25 -85 0
-49 4 -86 10 -86 6 -1 16 -2 22 -3 18 -2 23 -37 7 -47 -20 -12 -61 0 -81 23
-14 16 -18 39 -18 109 0 82 -1 89 -20 89 -13 0 -20 7 -20 20 0 13 7 20 20 20
16 0 20 7 20 36 0 33 2 35 28 32 22 -2 28 -8 30 -35z m2840 0 c3 -27 7 -33 28
-33 17 0 24 -5 24 -20 0 -15 -7 -20 -25 -20 -25 0 -25 -1 -25 -85 0 -49 4 -86
10 -86 6 -1 16 -2 22 -3 18 -2 23 -37 7 -47 -20 -12 -61 0 -81 23 -14 16 -18
39 -18 109 0 82 -1 89 -20 89 -13 0 -20 7 -20 20 0 13 7 20 20 20 16 0 20 7
20 36 0 33 2 35 28 32 22 -2 28 -8 30 -35z m730 0 c3 -27 7 -33 28 -33 17 0
24 -5 24 -20 0 -15 -7 -20 -25 -20 -25 0 -25 -1 -25 -85 0 -49 4 -86 10 -86 6
-1 16 -2 22 -3 18 -2 23 -37 7 -47 -20 -12 -61 0 -81 23 -14 16 -18 39 -18
109 0 82 -1 89 -20 89 -13 0 -20 7 -20 20 0 13 7 20 20 20 16 0 20 7 20 36 0
33 2 35 28 32 22 -2 28 -8 30 -35z m-2548 -38 c84 -43 84 -207 0 -250 -39 -20
-62 -19 -94 6 l-26 20 0 -65 0 -66 -30 0 -30 0 0 180 0 180 30 0 c21 0 30 -5
30 -16 0 -13 5 -12 26 5 32 25 55 26 94 6z m300 0 c84 -44 84 -206 0 -250 -39
-20 -62 -19 -94 6 l-26 20 0 -65 0 -66 -30 0 -30 0 0 180 0 180 30 0 c21 0 30
-5 30 -16 0 -13 5 -12 26 5 32 25 55 26 94 6z m738 -12 c3 -18 -1 -23 -20 -23
-13 0 -34 -7 -46 -16 -20 -14 -22 -23 -22 -110 l0 -94 -30 0 -30 0 0 130 0
130 30 0 c17 0 30 -5 30 -11 0 -5 10 -3 23 6 30 21 61 15 65 -12z m187 13 c31
-13 55 -41 55 -65 0 -19 -46 -12 -65 9 -10 11 -29 20 -42 20 -39 0 -63 -33
-63 -90 0 -83 60 -119 110 -65 29 31 60 33 60 5 0 -30 -42 -68 -82 -75 -44 -8
-101 14 -124 50 -44 68 -21 174 46 207 42 22 60 22 105 4z m860 -2 c37 -17 65
-66 65 -113 l0 -31 -90 0 c-98 0 -111 -9 -70 -50 25 -25 67 -26 94 -2 14 13
29 17 45 13 l25 -7 -30 -32 c-76 -86 -214 -23 -214 98 0 51 29 102 70 122 43
22 63 22 105 2z m280 2 c31 -13 55 -41 55 -65 0 -19 -46 -12 -65 9 -10 11 -29
20 -42 20 -39 0 -63 -33 -63 -90 0 -83 60 -119 110 -65 29 31 60 33 60 5 0
-30 -42 -68 -82 -75 -44 -8 -101 14 -124 50 -44 68 -21 174 46 207 42 22 60
22 105 4z m-4265 -81 c14 -44 28 -87 31 -95 3 -8 20 29 38 83 31 93 34 97 62
97 l28 0 -38 -107 c-71 -198 -82 -223 -104 -238 -24 -17 -73 -20 -81 -6 -11
17 6 41 29 41 13 0 26 9 32 23 10 21 -13 97 -76 260 -11 28 -10 28 21 25 31
-3 33 -7 58 -83z m740 -45 l0 -130 -30 0 -30 0 0 130 0 130 30 0 30 0 0 -130z
m310 45 c14 -44 28 -87 31 -95 3 -8 20 29 38 83 31 93 34 97 62 97 l28 0 -38
-107 c-71 -198 -82 -223 -104 -238 -24 -17 -73 -20 -81 -6 -11 17 6 41 29 41
13 0 26 9 32 23 10 21 -13 97 -76 260 -11 28 -10 28 21 25 31 -3 33 -7 58 -83z
m2530 -45 l0 -130 -30 0 -30 0 0 130 0 130 30 0 30 0 0 -130z m2783 -73 l68
-62 -70 -69 c-61 -60 -72 -68 -86 -56 -14 12 -11 18 27 57 l42 43 -212 0
c-205 0 -212 1 -212 20 0 19 7 20 212 20 l212 0 -42 43 c-33 33 -39 46 -30 55
7 7 14 12 18 12 3 0 36 -29 73 -63z m-6853 -1643 l0 -225 -42 3 -43 3 -3 223
-2 222 45 0 45 0 0 -226z m1710 156 l0 -70 23 14 c60 39 146 23 184 -33 21
-31 23 -45 23 -162 l0 -129 -39 0 -39 0 -3 114 c-5 130 -17 156 -74 156 -62 0
-69 -15 -75 -147 l-5 -118 -42 -3 -43 -3 0 225 0 226 45 0 45 0 0 -70z m-2682
13 l3 -33 -86 0 -86 0 3 -52 3 -53 73 -3 73 -3 -3 -32 -3 -32 -73 -3 -73 -3 3
-52 3 -52 83 -3 83 -3 -3 -32 -3 -32 -122 -3 -123 -3 0 216 0 216 123 -3 122
-3 3 -32z m2432 -13 l0 -40 40 0 c39 0 40 -1 40 -35 0 -34 -1 -35 -40 -35
l-41 0 3 -92 3 -93 35 -5 c32 -5 35 -8 35 -40 0 -33 -2 -35 -37 -38 -52 -4
-104 22 -117 60 -6 17 -11 71 -11 119 0 82 -2 89 -20 89 -16 0 -20 7 -20 35 0
28 4 35 20 35 17 0 20 7 20 40 l0 40 45 0 45 0 0 -40z m-1720 -52 c105 -53
121 -208 31 -293 -29 -27 -39 -30 -96 -30 -47 0 -68 5 -84 19 l-20 18 -3 -98
-3 -99 -42 -3 -43 -3 0 250 0 251 45 0 c39 0 45 -3 45 -22 0 -20 1 -20 18 -5
45 41 92 45 152 15z m613 -6 c90 -52 109 -180 41 -262 -37 -43 -75 -60 -137
-60 -98 0 -167 70 -167 168 0 90 36 138 130 176 25 9 101 -3 133 -22z m357
-22 c0 -49 0 -50 -32 -50 -59 0 -68 -20 -68 -142 l0 -108 -45 0 -45 0 0 170 0
170 45 0 c39 0 45 -3 45 -22 0 -20 1 -20 18 -5 16 15 57 35 75 36 4 1 7 -21 7
-49z m280 40 c48 -13 96 -65 110 -119 18 -70 16 -71 -120 -71 -112 0 -120 -1
-120 -19 0 -26 46 -61 81 -61 17 0 37 9 46 20 13 15 30 20 66 20 l49 0 -19
-31 c-30 -52 -66 -73 -136 -77 -52 -3 -67 0 -96 20 -51 35 -73 71 -79 127 -5
57 16 127 48 156 21 19 85 44 115 45 11 0 36 -5 55 -10z m1294 -18 c44 -26 68
-65 74 -121 l5 -51 -120 0 c-66 0 -122 -3 -126 -6 -9 -10 20 -61 38 -68 30
-11 62 -6 88 14 26 21 107 29 107 10 0 -18 -60 -77 -90 -90 -43 -18 -130 -8
-167 18 -82 58 -90 208 -15 275 52 47 144 55 206 19z m-3063 -33 l32 -51 31
51 c29 49 33 51 73 51 24 0 43 -3 43 -7 0 -4 -23 -42 -51 -84 l-51 -78 49 -73
c27 -40 53 -79 57 -85 5 -10 -5 -13 -42 -13 -49 0 -50 1 -83 51 -32 50 -33 51
-48 31 -9 -11 -24 -34 -33 -51 -15 -28 -22 -31 -63 -31 -34 0 -44 3 -39 13 5
6 29 45 55 86 l48 74 -48 71 c-26 39 -51 77 -55 84 -5 9 5 12 42 12 49 0 51
-1 83 -51z m1569 -814 l0 -225 -45 0 c-38 0 -45 3 -45 20 0 20 0 20 -32 0 -46
-28 -116 -26 -158 3 -48 32 -70 80 -70 153 0 67 21 109 72 148 39 28 118 27
158 -2 l30 -23 0 76 0 75 45 0 45 0 0 -225z m390 156 l0 -70 46 20 c164 73
293 -161 159 -291 -29 -28 -44 -34 -90 -38 -46 -4 -62 -1 -85 16 -27 21 -28
21 -33 2 -4 -16 -14 -20 -46 -20 l-41 0 0 225 0 225 45 0 45 0 0 -69z m430
-157 l0 -225 -42 3 -43 3 -3 223 -2 222 45 0 45 0 0 -226z m1630 1 l0 -225
-45 0 c-38 0 -45 3 -45 20 0 20 0 20 -32 0 -74 -45 -174 -15 -212 64 -21 43
-24 131 -6 168 48 93 163 124 231 62 18 -17 19 -15 19 59 l0 77 45 0 45 0 0
-225z m841 70 c-1 -76 -5 -143 -7 -147 -3 -4 -20 -8 -38 -8 l-33 0 -6 142 c-3
78 -4 145 -1 150 3 5 24 8 47 6 l40 -3 -2 -140z m-5221 -80 l0 -215 -40 0 -40
0 0 215 0 215 40 0 40 0 0 -215z m3510 0 l0 -215 -40 0 -40 0 0 215 0 215 40
0 40 0 0 -215z m-3137 113 c10 -5 27 -24 37 -41 17 -27 20 -51 20 -159 l0
-128 -39 0 -39 0 -4 114 c-4 131 -16 156 -75 156 -62 0 -73 -24 -73 -155 l0
-115 -45 0 -45 0 0 170 0 170 45 0 c35 0 45 -4 45 -16 0 -13 3 -14 14 -5 36
30 113 34 159 9z m398 -4 c27 -13 69 -67 69 -86 0 -5 -20 -8 -43 -8 -31 0 -49
6 -62 20 -20 22 -65 26 -95 10 -11 -6 -24 -26 -29 -46 -29 -104 59 -189 123
-119 18 19 33 25 65 25 50 0 53 -15 11 -63 -40 -46 -78 -60 -143 -55 -97 8
-147 67 -147 173 0 85 32 133 107 161 43 16 100 11 144 -12z m347 -30 c-2 -30
-8 -40 -23 -42 -58 -8 -64 -13 -74 -50 -6 -20 -11 -74 -11 -119 l0 -83 -40 0
-40 0 0 170 0 170 40 0 c33 0 40 -3 40 -20 0 -25 12 -25 34 -1 19 21 55 32 69
20 5 -3 7 -24 5 -45z m316 28 c44 -26 68 -65 74 -121 l5 -51 -122 0 c-114 0
-121 -1 -121 -20 0 -51 89 -80 125 -40 13 14 31 20 62 20 23 0 43 -3 43 -7 0
-22 -42 -72 -73 -86 -81 -39 -184 -11 -225 61 -38 69 -26 179 26 225 52 47
144 55 206 19z m1660 0 c44 -26 68 -65 74 -121 l5 -51 -122 0 c-114 0 -121 -1
-121 -20 0 -51 89 -80 125 -40 13 14 31 20 62 20 23 0 43 -3 43 -7 0 -22 -42
-72 -73 -86 -81 -39 -185 -10 -226 63 -37 67 -24 178 27 223 52 47 144 55 206
19z m789 6 c10 -5 27 -24 37 -41 17 -27 20 -51 20 -159 l0 -128 -39 0 -39 0
-4 114 c-4 131 -16 156 -75 156 -62 0 -73 -24 -73 -155 l0 -115 -45 0 -45 0 0
170 0 170 45 0 c35 0 45 -4 45 -16 0 -13 3 -14 14 -5 36 30 113 34 159 9z
m1009 -8 l28 -21 0 21 c0 17 6 20 45 20 l45 0 0 -170 0 -170 -45 0 c-38 0 -45
3 -45 20 0 20 0 20 -32 0 -73 -44 -173 -15 -211 62 -22 46 -24 135 -4 175 46
86 147 116 219 63z m-2772 -151 l0 -170 -42 3 -43 3 -3 168 -2 167 45 0 45 0
0 -171z m2450 0 l0 -170 -42 3 -43 3 -3 168 -2 167 45 0 45 0 0 -171z m2632
-1070 c198 -77 341 -225 401 -414 21 -66 22 -87 22 -380 l0 -310 -29 -75 c-63
-164 -172 -287 -318 -360 -156 -76 152 -70 -3555 -68 l-3328 3 -85 31 c-108
38 -181 86 -263 174 -71 75 -127 175 -152 275 -21 85 -21 582 0 674 40 167
167 329 322 409 148 77 -176 71 3558 69 l3360 -2 67 -26z m2451 16 c186 -48
335 -195 391 -384 13 -46 16 -113 16 -422 0 -338 -2 -372 -20 -430 -53 -170
-179 -300 -350 -361 -64 -23 -73 -23 -445 -23 -371 0 -382 1 -447 23 -187 65
-324 219 -364 412 -13 62 -15 136 -12 420 4 370 5 377 63 491 65 128 199 234
345 275 71 19 747 19 823 -1z m-8993 -2721 l0 -205 -37 3 -38 3 -3 190 c-1
104 0 195 2 202 3 7 21 13 41 13 l35 0 0 -206z m-557 172 c37 -15 62 -41 71
-73 7 -21 4 -23 -36 -23 -33 0 -46 5 -56 21 -19 30 -86 24 -90 -9 -5 -34 12
-48 84 -72 71 -24 104 -56 104 -101 0 -81 -52 -122 -148 -117 -54 3 -67 8 -91
33 -16 17 -32 40 -36 53 -6 20 -3 22 38 22 36 0 46 -4 50 -20 12 -46 107 -33
107 15 0 29 -27 49 -88 65 -23 6 -57 24 -75 40 -26 23 -32 35 -31 69 3 86 104
137 197 97z m1843 -2 c32 -15 64 -57 64 -84 0 -5 -20 -10 -44 -10 -35 0 -45 4
-49 20 -4 16 -14 20 -46 20 -35 0 -41 -3 -47 -25 -9 -35 9 -52 73 -71 75 -22
115 -59 116 -107 2 -69 -53 -117 -136 -117 -73 0 -137 43 -137 92 0 30 67 24
92 -7 32 -41 98 -27 98 20 0 29 -24 46 -97 70 -30 9 -61 28 -73 42 -24 31 -26
90 -4 122 34 48 126 65 190 35z m-446 -28 c0 -30 3 -35 28 -38 22 -2 28 -8 30
-35 3 -31 1 -33 -27 -33 l-31 0 0 -84 0 -85 28 -3 c23 -3 28 -8 30 -37 l3 -34
-52 5 c-78 8 -89 26 -89 144 0 87 -1 94 -20 94 -16 0 -20 7 -20 31 0 22 5 32
20 36 15 4 20 14 20 39 0 33 1 34 40 34 39 0 40 -1 40 -34z m670 0 c0 -32 3
-35 33 -38 28 -3 32 -7 35 -35 3 -32 2 -33 -33 -33 l-36 0 3 -82 3 -83 30 -5
c26 -4 30 -10 33 -39 l3 -34 -51 5 c-81 8 -94 28 -98 143 -3 73 -7 95 -18 95
-19 0 -19 59 1 66 9 4 15 19 15 40 0 33 1 34 40 34 39 0 40 -1 40 -34z m580 0
c0 -32 3 -35 33 -38 28 -3 32 -7 35 -35 3 -32 2 -33 -32 -33 l-36 0 0 -72 c0
-83 5 -95 40 -99 20 -3 26 -10 28 -38 l3 -34 -52 5 c-78 8 -89 26 -89 144 0
87 -1 94 -20 94 -16 0 -20 7 -20 31 0 22 5 32 20 36 15 4 20 14 20 39 0 32 2
34 35 34 33 0 35 -2 35 -34z m5130 -46 c0 -37 2 -40 19 -30 30 15 56 12 85
-11 24 -19 26 -26 26 -95 0 -59 -3 -74 -15 -74 -11 0 -15 11 -15 39 0 97 -28
137 -76 106 -21 -14 -24 -23 -24 -80 0 -58 -2 -65 -20 -65 -19 0 -20 7 -20
125 0 118 1 125 20 125 17 0 20 -7 20 -40z m-133 19 c26 -10 43 -25 43 -41 0
-13 -34 -8 -53 7 -19 14 -46 10 -59 -9 -12 -18 12 -45 46 -52 41 -7 76 -37 76
-65 0 -32 -44 -69 -82 -69 -38 0 -78 24 -78 46 0 18 27 18 46 -1 20 -19 48
-19 65 1 18 22 0 46 -43 59 -48 14 -68 33 -68 64 0 34 10 48 40 60 33 13 34
13 67 0z m-7298 -27 c47 -23 72 -61 78 -116 l6 -46 -112 0 c-92 0 -111 -3
-111 -15 0 -25 38 -55 68 -55 16 0 37 9 47 20 19 21 95 29 95 10 0 -6 -15 -27
-33 -47 -29 -31 -41 -37 -89 -41 -103 -8 -160 40 -166 143 -3 50 0 66 20 95
28 42 80 70 128 70 19 0 50 -8 69 -18z m490 0 c47 -23 72 -61 78 -116 l6 -46
-112 0 c-92 0 -111 -3 -111 -15 0 -25 38 -55 68 -55 16 0 37 9 47 20 19 21 95
29 95 10 0 -6 -15 -27 -34 -48 -34 -36 -36 -37 -105 -37 -68 0 -72 1 -108 37
-33 34 -37 43 -41 100 -3 53 0 68 20 98 28 42 80 70 128 70 19 0 50 -8 69 -18z
m338 1 c31 -14 73 -64 73 -85 0 -18 -77 -8 -95 12 -22 24 -72 26 -97 3 -13
-12 -18 -30 -18 -68 0 -60 14 -83 56 -91 25 -5 37 -1 59 20 28 26 49 31 79 20
14 -5 14 -9 0 -35 -22 -44 -70 -69 -129 -69 -106 0 -168 83 -143 192 22 98
123 145 215 101z m1201 -3 c25 -15 32 -17 32 -6 0 18 33 29 60 21 19 -6 20
-15 20 -156 l0 -149 -40 0 c-34 0 -40 3 -40 21 l0 20 -26 -20 c-19 -15 -41
-21 -75 -21 -62 0 -111 39 -129 104 -38 137 86 254 198 186z m601 2 c47 -23
72 -61 78 -116 l6 -46 -112 0 c-92 0 -111 -3 -111 -15 0 -23 37 -55 64 -55 13
0 35 9 49 20 26 21 97 28 97 10 0 -6 -15 -27 -34 -47 -30 -33 -39 -37 -92 -40
-104 -7 -164 48 -164 153 0 87 65 154 150 154 19 0 50 -8 69 -18z m5110 -27
c34 -17 41 -33 41 -86 0 -54 -34 -89 -88 -89 -86 0 -125 99 -63 161 33 32 67
37 110 14z m582 1 c22 -11 30 -11 50 0 34 19 66 17 89 -6 16 -16 20 -33 20
-95 0 -60 -3 -75 -15 -75 -12 0 -15 14 -15 65 0 57 -3 66 -24 80 -46 31 -76
-6 -76 -96 0 -37 -4 -49 -15 -49 -12 0 -15 13 -15 60 0 47 -4 64 -20 80 -11
11 -24 20 -30 20 -5 0 -19 -9 -30 -20 -16 -16 -20 -33 -20 -80 0 -47 -3 -60
-15 -60 -12 0 -15 17 -15 91 0 90 0 91 23 86 12 -4 29 -2 37 3 21 13 41 12 71
-4z m367 -21 c72 -84 -44 -203 -131 -135 -50 39 -43 125 12 155 36 21 91 12
119 -20z m335 4 c9 -12 17 -34 17 -50 l0 -29 -71 0 -71 0 14 -22 c19 -29 54
-35 78 -13 10 9 27 15 37 13 16 -3 15 -7 -9 -31 -50 -50 -138 -25 -152 43 -8
40 16 97 46 110 34 14 91 4 111 -21z m-1162 -49 c17 -68 19 -67 42 15 10 37
19 51 35 53 21 3 24 -2 48 -102 8 -35 16 -22 34 52 9 39 16 52 30 52 18 0 18
-3 5 -47 -32 -107 -42 -128 -62 -131 -17 -3 -23 5 -33 50 -18 75 -26 87 -34
52 -23 -94 -27 -104 -46 -104 -14 0 -24 17 -44 78 -31 91 -32 105 -9 100 12
-2 22 -23 34 -68z m1147 -795 c177 -42 324 -171 391 -344 l26 -66 3 -779 c2
-540 -1 -796 -8 -833 -39 -186 -195 -348 -396 -410 -57 -17 -223 -18 -4589
-18 -3798 0 -4539 2 -4585 14 -105 26 -180 69 -260 150 -79 80 -121 149 -145
242 -22 83 -22 1569 0 1654 49 187 209 343 401 389 91 22 9069 23 9162 1z m-6
-2846 c206 -43 379 -217 423 -427 22 -100 21 -1485 0 -1587 -39 -187 -171
-340 -350 -408 l-60 -22 -4550 -3 c-3388 -2 -4564 0 -4605 8 -207 43 -384 228
-419 437 -8 48 -11 288 -9 823 l3 755 26 67 c70 179 214 311 387 352 48 12
760 14 4579 15 3245 1 4537 -2 4575 -10z m0 -2820 c205 -42 379 -217 423 -424
22 -103 22 -1486 0 -1589 -40 -189 -170 -341 -350 -408 l-60 -23 -4555 -3
c-3245 -1 -4570 1 -4608 9 -140 28 -284 141 -354 275 -70 133 -69 116 -66 972
3 753 4 768 24 822 37 97 63 138 129 209 73 77 166 132 261 155 51 12 715 14
4581 15 3245 1 4537 -2 4575 -10z m0 -2820 c205 -42 379 -217 423 -424 22
-103 22 -1486 0 -1589 -40 -189 -170 -341 -350 -408 l-60 -23 -4555 -3 c-3245
-1 -4570 1 -4608 9 -140 28 -284 141 -354 275 -70 133 -69 116 -66 972 3 753
4 768 24 822 37 97 63 138 129 209 73 77 166 132 261 155 51 12 715 14 4581
15 3245 1 4537 -2 4575 -10z m0 -2820 c150 -31 311 -154 376 -289 60 -121 62
-146 62 -779 l0 -574 -49 64 c-175 231 -450 385 -744 418 -66 8 -1103 11
-3329 11 -2951 1 -3235 2 -3253 17 -15 12 -16 14 -3 10 11 -4 15 -2 12 6 -2 7
-13 13 -23 13 -11 0 -17 -5 -14 -13 4 -11 -1 -11 -22 -3 -30 12 -69 8 -125
-12 -26 -9 -228 -14 -780 -19 -527 -4 -760 -10 -795 -18 -53 -13 -161 -21
-182 -13 -7 2 -10 8 -7 13 3 5 -2 9 -10 9 -9 0 -16 7 -16 16 0 12 -6 15 -22
11 -21 -6 -21 -5 -5 7 15 12 15 15 2 26 -8 7 -12 16 -9 21 3 5 0 9 -6 9 -6 0
-9 4 -6 9 4 5 1 11 -6 13 -6 2 -8 10 -4 17 5 7 15 10 25 6 12 -5 13 -4 4 6 -7
6 -35 13 -63 15 -28 1 -59 5 -69 9 -11 3 -26 -1 -35 -10 -9 -9 -20 -14 -25
-10 -15 9 -1 37 15 31 11 -4 10 1 -2 20 -11 16 -24 24 -38 22 -18 -3 -21 -11
-24 -57 -2 -30 2 -59 7 -64 8 -8 11 -8 11 1 0 6 7 9 15 6 11 -5 12 -11 4 -25
-11 -22 -3 -43 13 -33 6 4 5 -2 -1 -15 -7 -12 -9 -26 -5 -32 4 -8 1 -8 -13 0
-11 6 -23 7 -27 4 -10 -11 -7 -48 6 -61 7 -7 8 -12 1 -12 -6 0 -11 -31 -12
-77 l-2 -77 -85 -88 c-137 -143 -238 -316 -281 -487 -16 -60 -18 -63 -24 -36
-12 53 -10 1495 2 1561 37 199 208 380 405 428 51 12 715 14 4581 15 3245 1
4537 -2 4575 -10z m-8025 -1919 c169 -78 249 -259 193 -441 -19 -64 -29 -80
-88 -139 -89 -89 -151 -114 -272 -108 -102 5 -158 28 -226 90 -58 53 -88 99
-108 168 -60 201 70 417 277 460 66 14 155 2 224 -30z m2410 16 c15 -13 46
-32 68 -44 47 -24 95 -73 121 -122 14 -27 19 -64 22 -157 l4 -121 34 -33 c41
-39 48 -101 15 -119 -12 -6 -128 -10 -308 -10 -245 0 -292 2 -311 16 -34 23
-28 60 18 110 l40 44 0 112 c0 88 5 122 19 153 26 59 66 101 117 126 25 12 56
32 69 45 30 30 56 30 92 0z m2681 12 c15 -15 18 -722 3 -716 -5 2 -70 35 -144
73 l-136 70 -145 -72 -146 -73 0 353 c0 261 3 356 12 365 17 17 539 17 556 0z
m2304 -23 c115 -76 100 -259 -26 -316 -79 -36 -169 -13 -222 56 -38 51 -45
134 -15 192 49 98 171 129 263 68z m33 -409 c28 -7 69 -22 91 -34 94 -48 165
-174 129 -228 l-15 -24 -339 0 c-375 0 -366 -2 -364 64 3 95 101 190 228 222
67 17 208 17 270 0z m-7315 -983 c0 -2 -120 -3 -267 -3 l-268 0 135 135 135
135 132 -132 c73 -73 133 -134 133 -135z"/>
<path d="M9536 23502 c-61 -1 -116 -8 -123 -14 -19 -16 -18 -211 1 -227 22
-18 526 -15 544 3 18 18 18 205 -1 223 -13 13 -221 20 -421 15z"/>
<path d="M6144 23477 c-2 -7 -3 -56 -2 -108 l3 -94 53 -3 53 -3 -3 108 -3 108
-48 3 c-33 2 -49 -1 -53 -11z"/>
<path d="M2910 23385 c0 -76 3 -95 15 -95 10 0 15 16 17 66 l3 65 43 -37 c48
-41 56 -40 120 12 l32 27 0 -67 c0 -52 3 -66 15 -66 12 0 15 17 15 95 0 52 -3
95 -6 95 -4 0 -31 -20 -60 -45 -28 -25 -58 -45 -64 -45 -6 0 -36 20 -64 45
-29 25 -56 45 -60 45 -3 0 -6 -43 -6 -95z"/>
<path d="M4010 21970 c-15 -15 -20 -33 -20 -70 0 -117 114 -124 127 -8 9 78
-58 127 -107 78z"/>
<path d="M4310 21970 c-15 -15 -20 -33 -20 -70 0 -117 114 -124 127 -8 9 78
-58 127 -107 78z"/>
<path d="M1316 20205 c-21 -20 -26 -33 -26 -73 0 -61 31 -96 87 -96 66 0 104
77 72 147 -23 50 -91 61 -133 22z"/>
<path d="M1925 20205 c-19 -19 -25 -35 -25 -70 0 -58 11 -79 50 -95 65 -27
129 37 114 116 -13 69 -92 97 -139 49z"/>
<path d="M2283 19465 c-26 -18 -43 -71 -36 -108 8 -39 48 -71 90 -71 48 0 83
39 83 95 0 76 -80 124 -137 84z"/>
<path d="M2925 19455 c-20 -19 -25 -34 -25 -73 0 -52 21 -83 67 -96 26 -8 78
16 93 43 49 93 -64 198 -135 126z"/>
<path d="M4737 19469 c-27 -16 -48 -72 -41 -108 15 -73 104 -101 150 -47 17
19 24 39 24 67 0 72 -75 122 -133 88z"/>
<path d="M5367 19469 c-27 -16 -48 -72 -41 -108 15 -73 104 -101 150 -47 17
19 24 39 24 67 0 72 -75 122 -133 88z"/>
<path d="M1219 17764 c-92 -28 -159 -135 -144 -231 8 -57 60 -132 110 -157 53
-27 145 -28 198 -2 l38 19 43 -42 c39 -39 43 -40 59 -24 16 16 15 20 -25 60
l-41 42 22 50 c11 27 21 62 21 78 0 91 -67 183 -153 208 -60 18 -68 18 -128
-1z m165 -68 c47 -36 66 -74 66 -134 0 -91 -72 -162 -165 -162 -121 0 -199
120 -151 233 39 94 167 126 250 63z"/>
<path d="M2972 15633 c-23 -9 -44 -64 -38 -96 9 -46 33 -67 77 -67 50 0 79 30
79 82 0 64 -59 105 -118 81z"/>
<path d="M4107 14083 c-4 -3 -7 -26 -7 -50 0 -40 -2 -43 -19 -33 -28 15 -83
12 -108 -5 -28 -20 -47 -78 -39 -120 12 -64 91 -104 146 -75 13 7 21 7 25 0 3
-5 17 -10 31 -10 l24 0 0 150 0 150 -23 0 c-13 0 -27 -3 -30 -7z"/>
<path d="M4214 14077 c-2 -7 -3 -74 -2 -148 l3 -134 28 -3 27 -3 0 75 c0 70 2
77 25 92 23 15 27 15 50 0 23 -15 25 -22 25 -92 l0 -75 28 3 27 3 0 82 c-1 73
-3 85 -25 108 -25 27 -75 34 -111 15 -18 -10 -19 -7 -19 40 0 47 -2 50 -25 50
-14 0 -28 -6 -31 -13z"/>
<path d="M5827 14083 c-4 -3 -7 -26 -7 -50 0 -40 -2 -43 -19 -33 -28 15 -83
12 -108 -5 -28 -20 -47 -78 -39 -120 12 -64 91 -104 146 -75 13 7 21 7 25 0 3
-5 17 -10 31 -10 l24 0 0 150 0 150 -23 0 c-13 0 -27 -3 -30 -7z"/>
<path d="M6394 14077 c-2 -7 -3 -74 -2 -148 l3 -134 28 -3 27 -3 0 75 c0 66 3
77 22 90 29 20 34 20 58 -4 16 -16 20 -33 20 -90 0 -68 1 -70 25 -70 25 0 25
1 25 88 0 80 -2 91 -23 110 -25 24 -75 29 -108 12 -18 -10 -19 -7 -19 40 0 47
-2 50 -25 50 -14 0 -28 -6 -31 -13z"/>
<path d="M3000 14056 c-25 -13 -46 -30 -48 -38 -6 -30 -88 -41 -412 -53 -85
-4 -176 -8 -202 -10 -179 -15 -725 -34 -1003 -35 -93 0 -241 -3 -327 -6 l-158
-7 0 -251 0 -251 35 -19 c37 -20 54 -51 37 -68 -7 -7 -16 -6 -27 6 -29 29 -45
20 -45 -25 0 -34 3 -40 18 -35 9 2 43 12 75 21 32 8 55 20 52 25 -10 16 40 22
83 11 22 -6 43 -18 46 -26 5 -14 10 -14 43 1 92 39 130 46 169 29 20 -8 41
-12 48 -9 6 3 2 -2 -9 -11 -11 -8 -38 -20 -60 -26 -22 -6 -48 -15 -59 -21 -13
-7 -16 -6 -11 3 5 8 4 10 -4 5 -6 -4 -11 -13 -10 -19 4 -31 -2 -38 -23 -32
-16 4 -19 3 -9 -3 10 -7 10 -11 1 -17 -14 -8 -15 -7 -24 23 -5 16 -3 22 8 22
8 0 17 4 20 8 6 10 -81 -2 -91 -12 -4 -4 -2 -10 5 -15 6 -4 -3 -7 -23 -7 -29
0 -32 2 -22 15 10 12 7 13 -27 8 -41 -7 -58 -17 -39 -24 8 -3 5 -11 -9 -25
-18 -18 -28 -19 -78 -14 -37 4 -61 3 -65 -4 -3 -6 3 -10 14 -10 29 0 28 -43
-2 -63 -21 -15 -21 -16 -2 -17 11 0 31 -9 44 -19 l24 -18 -22 -22 c-18 -18
-25 -20 -37 -10 -11 9 -14 8 -14 -9 0 -11 6 -27 13 -34 8 -7 12 -18 10 -25 -6
-16 20 -64 51 -92 21 -20 28 -22 40 -12 8 7 20 10 26 6 5 -3 10 -2 10 3 0 9
112 62 132 62 8 0 37 9 65 19 29 10 54 16 57 14 3 -3 21 2 40 11 19 9 43 16
55 16 22 0 30 19 9 21 -7 1 6 5 29 9 23 5 51 18 62 29 12 12 27 21 34 21 8 -1
7 -5 -4 -13 -19 -15 -32 -47 -19 -47 6 0 10 5 10 11 0 6 7 9 15 5 8 -3 15 0
15 7 0 8 4 7 11 -3 8 -12 9 -11 4 6 -4 15 0 24 10 28 10 4 13 11 8 18 -16 26
-10 36 26 42 57 9 111 7 111 -5 0 -5 6 -7 13 -4 6 4 5 1 -3 -7 -24 -21 -44
-49 -34 -47 21 4 35 -2 29 -11 -4 -6 -12 -7 -18 -3 -7 4 -6 0 2 -10 12 -15 11
-17 -2 -17 -17 0 -32 -18 -23 -27 3 -4 14 -7 24 -9 34 -5 61 -16 66 -29 2 -7
-2 -12 -12 -11 -21 1 -26 -25 -9 -48 15 -20 45 -23 123 -11 49 8 76 -14 56
-46 -15 -23 -16 -69 -2 -69 6 0 9 3 8 8 -3 8 12 25 111 130 38 39 76 72 84 72
8 0 50 34 93 75 75 72 114 92 114 60 0 -8 -7 -15 -16 -15 -8 0 -12 -4 -9 -10
3 -5 15 -10 25 -10 10 0 20 -6 23 -12 3 -10 10 -8 23 5 18 16 18 17 -2 17 -29
0 -26 29 3 36 13 4 68 3 121 0 53 -4 145 -6 203 -6 l107 1 44 -53 c25 -29 48
-61 51 -71 4 -9 15 -20 24 -24 10 -3 30 -17 45 -31 17 -15 43 -26 71 -29 l45
-5 21 56 c27 73 28 122 1 136 -11 6 -20 19 -20 30 0 11 9 24 20 30 20 10 20
21 20 475 l0 465 -28 0 c-15 0 -47 -11 -72 -24z m-548 -260 c11 -16 -9 -33
-48 -41 l-36 -6 7 -65 c8 -74 0 -124 -20 -124 -8 0 -21 -10 -29 -22 -17 -24
-21 -42 -7 -34 4 3 6 -6 3 -19 -2 -14 -9 -25 -14 -25 -6 0 -8 -14 -5 -32 6
-45 -17 -87 -59 -104 -25 -11 -34 -20 -34 -39 l0 -24 -26 26 c-21 20 -24 30
-16 43 13 21 -6 47 -33 42 -14 -2 -16 0 -7 6 10 7 10 11 -2 22 -9 7 -14 16
-11 20 5 8 -24 24 -37 22 -5 -1 -8 7 -8 18 0 11 -4 20 -10 20 -5 0 -7 -8 -3
-17 3 -10 3 -15 -1 -12 -4 4 -9 19 -12 35 -3 16 -7 31 -10 33 -7 7 46 93 79
129 17 17 39 32 49 32 11 0 36 8 56 19 102 51 112 59 112 99 0 21 3 22 58 16
31 -4 60 -12 64 -18z"/>
<path d="M3476 14038 c-20 -48 -86 -234 -86 -242 0 -3 11 -6 25 -6 17 0 29 8
37 25 10 22 17 25 69 25 52 0 57 -2 63 -25 5 -20 13 -25 36 -25 l29 0 -44 123
c-24 67 -46 130 -50 140 -5 11 -18 17 -37 17 -23 0 -32 -6 -42 -32z"/>
<path d="M5000 13930 l0 -141 28 3 c25 3 27 7 30 56 l3 52 45 0 c84 0 122 76
70 137 -21 25 -31 28 -100 31 l-76 4 0 -142z"/>
<path d="M5465 14012 c-30 -6 -63 -41 -75 -78 -31 -93 72 -182 148 -128 20 14
22 14 22 0 0 -10 9 -16 25 -16 l25 0 0 110 c0 110 0 110 -24 110 -13 0 -26 -6
-29 -12 -3 -10 -7 -10 -18 -2 -18 14 -49 21 -74 16z"/>
<path d="M3682 13903 l3 -108 28 -3 27 -3 0 75 c0 70 2 77 25 92 23 15 27 15
50 0 23 -15 25 -22 25 -92 l0 -75 28 3 27 3 0 82 c-1 73 -3 85 -25 108 -25 27
-75 34 -111 15 -13 -7 -19 -7 -19 0 0 5 -14 10 -30 10 l-31 0 3 -107z"/>
<path d="M4663 13995 c-28 -19 -47 -78 -39 -118 9 -47 53 -87 94 -87 18 0 42
5 52 10 13 7 21 7 25 0 3 -5 17 -10 31 -10 24 0 24 0 24 110 l0 110 -30 0
c-16 0 -30 -5 -30 -10 0 -7 -6 -7 -19 0 -28 15 -83 12 -108 -5z"/>
<path d="M5240 13899 l0 -110 28 3 c26 3 27 5 32 78 5 73 6 75 33 78 23 3 27
8 27 33 0 31 -25 40 -48 17 -9 -9 -12 -9 -12 0 0 7 -13 12 -30 12 l-30 0 0
-111z"/>
<path d="M5955 13986 c-91 -91 16 -244 128 -184 23 12 46 37 47 51 0 13 -50 7
-75 -9 -23 -15 -27 -15 -50 0 -41 27 -29 36 50 36 82 0 93 7 81 56 -12 48 -49
74 -106 74 -40 0 -56 -5 -75 -24z"/>
<path d="M6190 13985 c-37 -39 -20 -75 48 -99 38 -13 52 -23 50 -35 -4 -22
-42 -26 -58 -6 -16 19 -60 20 -60 1 0 -26 50 -56 95 -56 30 0 47 6 63 23 43
45 22 85 -56 108 -30 9 -42 17 -40 28 4 22 46 27 54 7 6 -17 64 -23 64 -7 0 4
-9 20 -21 35 -17 22 -29 26 -68 26 -38 0 -52 -5 -71 -25z"/>
<path d="M1390 12915 c-10 -25 -11 -25 -85 -16 -5 1 -3 6 5 11 13 8 13 10 1
10 -8 0 -29 -16 -47 -35 -19 -21 -26 -35 -18 -35 8 0 14 -4 14 -9 0 -14 -49
-8 -55 7 -6 17 -27 15 -51 -4 -17 -14 -17 -15 -1 -10 12 4 17 2 15 -6 -3 -7
-18 -15 -34 -19 -36 -7 -95 -38 -74 -39 9 0 21 5 27 11 8 8 16 6 29 -10 26
-30 58 -28 50 2 -4 19 0 25 26 35 32 12 53 8 42 -9 -3 -5 -14 -7 -24 -4 -13 4
-19 -1 -22 -18 -5 -26 -4 -26 105 -18 10 1 17 9 17 21 0 17 3 18 18 9 14 -9
26 -9 48 0 l29 11 -32 -3 c-18 -2 -33 0 -33 5 0 4 6 8 13 8 9 0 9 2 -1 9 -11
6 -11 10 0 18 19 15 50 25 79 27 20 1 25 -3 21 -16 -2 -10 1 -18 7 -18 6 0 10
3 10 8 -4 21 4 31 31 41 17 5 30 15 30 20 0 14 -4 14 -45 -3 -19 -8 -35 -12
-35 -9 0 3 -7 0 -15 -7 -13 -11 -14 -10 -9 3 3 10 -1 17 -13 20 -16 4 -16 5
-1 6 11 1 15 6 12 16 -9 22 -23 18 -34 -10z"/>
<path d="M1068 11560 c-77 -23 -167 -111 -192 -188 -13 -39 -16 -118 -16 -479
l0 -433 43 0 c23 0 58 4 78 9 21 5 42 5 49 1 7 -4 -18 -11 -54 -15 -36 -3 -68
-10 -71 -15 -3 -4 -14 -6 -25 -3 -19 5 -20 0 -20 -132 l0 -137 27 7 c15 3 32
7 38 8 5 1 13 7 17 12 5 6 8 3 8 -6 0 -15 -45 -33 -77 -32 -16 1 -17 3 7 -60
23 -61 83 -128 141 -158 23 -11 42 -19 42 -17 1 2 0 126 -3 276 -3 151 -2 276
3 279 9 6 76 5 102 -1 11 -2 40 -9 65 -15 25 -6 60 -11 78 -11 17 0 32 -5 32
-11 0 -7 -13 -8 -37 -4 -21 3 -46 6 -56 6 -10 0 -30 4 -43 9 l-24 10 0 -100
c0 -55 4 -102 10 -105 6 -3 10 -12 10 -18 0 -7 -4 -6 -10 3 -7 10 -10 -14 -10
-77 0 -81 2 -94 19 -103 28 -14 36 -13 21 5 -7 8 -16 12 -21 9 -5 -3 -9 0 -9
5 0 6 5 11 11 11 6 0 9 12 6 28 -2 15 -2 22 0 15 2 -7 11 -9 20 -6 8 3 19 0
25 -8 8 -11 9 -10 4 3 -3 12 4 22 26 33 44 22 48 20 49 -27 0 -24 4 -52 9 -63
5 -14 1 -29 -15 -50 -20 -27 -21 -32 -7 -45 14 -13 15 -12 9 3 -9 25 9 30 38
11 26 -17 26 -26 -1 -30 -9 -1 -23 -5 -32 -9 -13 -5 -12 -8 7 -21 33 -24 81
-29 81 -10 0 9 7 16 15 16 9 0 12 -6 9 -15 -5 -11 -2 -13 10 -9 9 3 13 10 10
15 -3 5 2 6 10 3 9 -3 13 -10 10 -16 -7 -12 74 -8 100 5 15 7 16 11 5 18 -11
8 -9 9 6 7 12 -2 20 3 20 12 0 30 26 38 49 14 14 -13 14 -17 2 -30 -8 -8 -21
-14 -28 -14 -8 1 -7 6 6 15 18 14 15 35 -6 35 -6 0 -8 -3 -5 -7 4 -3 1 -13 -5
-21 -19 -22 -18 -42 2 -42 10 0 21 4 25 10 4 6 15 5 30 -2 19 -8 28 -8 40 2 8
7 15 8 15 3 0 -6 33 -11 75 -11 75 -1 75 -1 75 26 0 21 2 24 10 12 7 -10 10
-11 10 -2 0 7 -6 15 -14 18 -8 3 -17 12 -20 20 -3 9 -1 12 4 9 6 -3 10 1 10
11 0 13 3 14 15 4 8 -7 13 -16 10 -20 -3 -5 -1 -11 4 -15 6 -3 8 -12 4 -20 -3
-8 0 -15 6 -15 6 0 10 14 9 32 -2 25 1 33 16 36 12 3 17 -1 13 -10 -2 -7 -10
-12 -16 -10 -7 1 -10 -2 -6 -8 10 -16 19 -12 37 20 17 31 52 43 42 15 -4 -10
0 -15 15 -15 12 0 21 -5 21 -11 0 -5 5 -7 10 -4 16 10 12 25 -7 26 -11 0 -13
3 -5 6 6 2 10 9 7 13 -3 5 -12 7 -20 3 -19 -7 -19 7 0 33 8 12 12 31 10 43 -3
15 1 21 15 21 10 0 21 8 23 18 4 13 5 12 6 -5 1 -14 -7 -24 -21 -29 -20 -6
-21 -7 -4 -19 9 -7 17 -17 17 -22 1 -4 3 -10 6 -13 3 -3 3 4 1 16 -4 25 18 55
36 48 9 -3 15 5 19 23 4 23 3 25 -7 11 -8 -11 -17 -14 -27 -7 -8 5 -10 9 -6 9
12 0 -12 40 -24 40 -6 0 -8 -4 -4 -9 3 -6 -3 -14 -12 -20 -16 -9 -16 -12 -3
-21 11 -7 6 -10 -21 -10 -44 0 -50 6 -39 36 7 18 6 24 -5 24 -8 0 -12 -6 -9
-13 3 -8 -3 -13 -16 -13 -11 0 -19 5 -17 11 3 5 -7 11 -20 11 -13 1 -30 8 -36
16 -7 7 -11 11 -10 9 2 -2 -2 -10 -9 -18 -9 -11 -8 -13 3 -11 10 2 14 -6 13
-29 -1 -18 2 -31 6 -28 5 3 11 1 15 -4 3 -6 -7 -9 -24 -8 -26 2 -28 4 -15 18
20 22 17 31 -6 19 -14 -7 -20 -7 -20 0 0 5 6 10 13 10 9 0 8 3 -2 9 -7 5 -11
13 -8 18 3 5 0 10 -8 10 -8 0 -15 -6 -15 -14 0 -7 4 -13 8 -13 4 0 7 -17 6
-38 l-1 -38 40 1 c30 1 42 6 47 20 6 17 7 17 13 1 9 -24 9 -38 -1 -32 -4 2
-14 1 -20 -3 -10 -6 -9 -11 4 -22 16 -12 17 -12 11 3 -4 12 -2 15 9 11 11 -4
14 4 14 35 0 47 15 64 23 27 2 -14 0 -28 -5 -31 -4 -3 -6 -10 -2 -15 3 -6 11
-3 18 6 10 14 14 15 24 3 13 -17 4 -61 -11 -51 -5 3 -7 1 -4 -4 4 -6 0 -14 -9
-17 -12 -4 -14 -1 -9 14 4 12 2 20 -5 20 -6 0 -8 -4 -5 -10 3 -5 1 -10 -4 -10
-6 0 -11 6 -11 13 0 8 -3 8 -9 -2 -5 -8 -7 -20 -5 -26 8 -19 -39 -27 -56 -9
-13 13 -11 14 20 8 32 -7 34 -6 21 9 -15 18 -26 23 -16 7 9 -14 -8 -13 -23 2
-9 9 -12 9 -12 -1 0 -9 -9 -11 -29 -6 -22 5 -32 2 -39 -12 -8 -14 -10 -7 -10
30 0 32 4 50 14 54 8 3 14 9 14 15 0 5 -5 6 -11 2 -7 -4 -10 4 -8 22 2 16 0
34 -4 41 -10 16 2 63 16 63 6 0 2 6 -8 14 -11 8 -24 12 -29 9 -11 -7 1 15 22
39 8 10 19 15 24 12 5 -3 4 -11 -2 -19 -7 -8 -7 -16 -2 -19 6 -3 13 4 17 17 4
13 8 17 12 10 3 -8 14 -11 30 -7 20 5 24 4 19 -7 -4 -8 -1 -6 7 4 11 13 17 15
22 6 4 -6 3 -14 -2 -18 -12 -8 -11 -64 1 -73 17 -11 36 4 36 28 0 14 5 23 13
21 6 -1 12 5 12 13 0 10 -8 14 -21 12 -13 -2 -22 2 -21 10 1 38 -3 50 -15 41
-7 -6 -21 -10 -31 -10 -16 0 -16 2 -3 15 18 18 113 18 185 0 35 -9 40 -13 27
-20 -16 -9 -15 -11 3 -27 21 -18 29 -37 12 -26 -6 3 -13 0 -18 -8 -4 -7 -16
-13 -25 -14 -34 -1 -38 -3 -38 -18 0 -11 -7 -13 -29 -9 -16 4 -32 1 -35 -5 -5
-7 -1 -8 10 -4 12 4 15 3 10 -5 -5 -8 -1 -10 10 -5 10 4 15 2 11 -4 -3 -5 3
-9 16 -7 12 1 30 3 41 3 14 1 17 7 14 24 -4 22 -2 23 39 19 38 -4 43 -2 43 17
0 11 -10 29 -22 41 l-22 20 25 1 24 1 -25 7 c-20 5 -22 8 -9 13 19 7 228 -9
276 -22 19 -5 35 -5 39 1 3 5 11 9 17 9 8 0 8 -3 2 -8 -15 -11 -17 -32 -2 -26
10 4 12 -3 9 -26 -3 -21 -10 -30 -23 -30 -10 0 -21 -4 -24 -10 -3 -6 1 -7 9
-4 12 5 16 0 16 -17 0 -18 -3 -20 -12 -11 -15 15 -32 16 -23 2 3 -5 -1 -10
-10 -10 -10 0 -13 5 -9 12 5 8 2 9 -9 5 -15 -6 -22 7 -18 35 0 4 -12 5 -27 2
-41 -7 -54 -13 -48 -23 3 -5 -4 -11 -17 -15 -35 -9 -47 -7 -47 8 0 8 -6 16
-12 19 -7 3 6 2 30 0 30 -4 42 -2 42 7 0 7 -8 10 -20 7 -11 -3 -18 -2 -15 2 2
5 -9 8 -24 7 -16 -1 -27 -4 -25 -8 2 -4 0 -9 -6 -13 -5 -3 -11 -1 -11 4 -3 26
-4 30 -12 37 -4 5 -6 -8 -4 -27 4 -34 3 -35 -32 -35 -20 1 -39 6 -43 11 -5 6
-8 4 -8 -5 0 -26 14 -35 59 -36 43 -1 62 -15 60 -44 -1 -11 -3 -10 -6 3 -2 9
-9 14 -15 11 -7 -4 -8 -2 -4 4 4 7 3 12 -2 12 -5 0 -12 -9 -15 -20 -3 -13 0
-20 9 -20 8 0 14 -6 14 -13 0 -20 -21 -36 -39 -30 -13 4 -13 3 -2 -5 7 -5 11
-16 9 -23 -3 -8 -1 -22 4 -31 7 -15 4 -18 -17 -18 -14 0 -25 5 -25 10 0 6 -8
10 -17 11 -16 0 -15 2 2 9 14 6 6 7 -22 3 -37 -5 -43 -3 -43 13 0 15 -2 16 -9
5 -11 -17 58 -91 78 -83 9 4 6 9 -13 19 -14 7 -26 19 -26 26 0 7 3 8 8 2 4 -5
14 -11 22 -13 29 -7 41 -23 28 -39 -9 -11 -9 -16 3 -24 8 -5 20 -9 27 -9 6 0
12 -4 12 -10 0 -5 7 -10 16 -10 14 0 14 3 4 15 -9 10 -9 15 -1 15 11 0 15 -13
12 -37 -1 -7 6 -13 15 -13 11 0 15 6 11 20 -6 25 -3 25 19 3 12 -12 34 -18 69
-19 49 -1 51 0 47 23 -2 13 0 23 7 23 7 0 10 -4 7 -9 -3 -4 2 -17 10 -27 14
-17 15 -17 10 -1 -7 21 -2 22 18 2 12 -12 20 -13 35 -5 13 7 22 7 26 0 8 -13
45 -13 45 0 0 5 7 6 17 3 11 -5 14 -3 8 6 -6 10 -3 11 15 1 21 -11 22 -10 18
7 -4 17 -1 19 21 15 14 -3 31 -12 38 -21 15 -23 88 -28 80 -7 -4 9 -3 15 1 15
18 -3 32 2 32 11 0 6 -11 10 -24 10 -19 0 -23 4 -19 20 3 11 10 20 15 20 6 0
8 -7 4 -15 -7 -18 -7 -18 39 1 20 8 35 18 32 21 -4 3 1 12 9 20 8 8 12 19 9
24 -4 5 -1 9 4 9 15 0 14 -5 -5 -42 -15 -30 -15 -31 5 -25 12 3 19 0 18 -7 -1
-6 6 -10 16 -10 9 1 17 -2 17 -7 0 -12 -47 -11 -55 1 -10 16 -52 12 -52 -5 0
-9 6 -14 14 -11 12 5 17 -6 14 -26 0 -5 10 -8 24 -8 14 0 25 5 25 11 0 6 9 8
21 4 13 -4 19 -3 16 2 -3 5 4 9 15 9 14 -1 27 9 35 24 7 14 13 19 13 12 0 -10
5 -10 21 -1 17 9 19 13 8 20 -13 8 -5 13 15 10 5 -1 5 6 2 16 -6 14 -5 15 5 6
10 -10 15 -9 25 5 16 20 18 36 5 27 -5 -3 -12 -1 -16 4 -3 6 4 15 16 21 11 7
18 14 16 17 -3 2 -15 0 -26 -6 -17 -10 -20 -9 -14 5 4 12 3 15 -5 10 -7 -4
-12 -3 -12 2 0 6 -9 8 -21 5 -12 -4 -25 0 -30 8 -7 11 -9 10 -9 -3 0 -12 8
-18 24 -18 14 0 28 -5 32 -12 4 -7 3 -8 -4 -4 -7 4 -12 2 -12 -3 0 -6 -5 -11
-11 -11 -5 0 -8 4 -5 9 6 10 -52 27 -61 18 -8 -9 -63 14 -60 25 1 6 -5 13 -13
15 -13 4 -13 3 0 -6 26 -18 -31 -17 -68 1 -17 9 -25 9 -34 0 -7 -7 -17 -12
-22 -12 -6 0 -4 5 4 10 11 7 11 10 2 10 -7 0 -10 5 -7 10 6 10 -20 15 -58 12
-10 -1 -15 2 -12 8 4 6 -1 7 -11 3 -11 -4 -15 -2 -11 4 4 6 -4 10 -21 9 -26
-1 -27 1 -24 39 4 43 14 55 43 48 10 -3 19 0 19 6 0 6 8 11 18 12 14 0 14 2
-3 9 -15 6 -6 9 33 9 36 1 51 5 46 12 -5 8 -1 8 14 0 11 -6 30 -11 41 -11 14
0 21 -6 21 -20 0 -23 -10 -26 -28 -8 -9 9 -15 9 -23 1 -9 -9 -2 -14 27 -19
l39 -8 -30 -7 c-23 -6 -18 -7 25 -7 94 1 97 0 102 -27 5 -23 2 -25 -31 -26
l-36 -1 35 -11 c19 -6 38 -15 42 -21 4 -6 10 -7 14 -3 4 4 13 2 21 -4 7 -7 13
-7 13 -2 0 6 18 7 48 2 67 -11 72 -11 72 6 0 10 -10 15 -27 15 -63 0 -103 12
-103 31 0 10 -4 21 -10 24 -5 3 -10 18 -10 33 1 24 3 22 15 -13 8 -22 15 -41
15 -42 0 -2 5 -3 11 -3 5 0 8 4 5 9 -4 5 17 9 46 9 29 -1 54 2 56 5 6 18 -1
23 -28 19 -16 -2 -30 0 -30 5 0 5 10 9 23 8 26 0 35 19 9 21 -9 1 -23 2 -30 3
-18 1 -63 51 -56 62 3 5 31 10 62 10 l57 2 -65 8 c-83 11 -283 7 -292 -5 -4
-6 -13 -4 -23 4 -13 11 -18 11 -25 1 -4 -7 -10 -9 -13 -4 -3 5 -52 10 -108 11
-56 1 -105 4 -107 7 -3 3 138 6 314 6 305 2 336 7 149 24 -38 4 -72 9 -74 11
-2 2 33 4 79 4 46 0 81 3 77 6 -8 8 -538 -7 -533 -15 2 -3 -100 -7 -228 -7
l-232 -1 4 28 c2 15 12 30 21 32 14 4 14 5 -1 6 -21 1 -25 40 -6 59 8 8 8 12
1 12 -16 0 -23 -25 -23 -77 0 -78 -10 -42 -15 55 l-5 92 25 0 c14 0 25 5 25
10 0 6 -8 10 -17 10 -17 1 -17 1 -1 11 15 9 14 13 -13 39 -18 17 -38 27 -50
25 -10 -2 -19 0 -19 6 0 12 26 12 50 -1 15 -8 21 -6 29 7 7 11 14 14 18 8 12
-16 69 -45 88 -45 22 0 16 29 -9 44 -14 8 -20 8 -23 -1 -3 -7 -9 -13 -14 -13
-6 0 -7 6 -1 16 11 19 4 54 -10 54 -5 0 -7 4 -3 9 3 5 -4 12 -15 16 -11 4 -32
17 -45 31 -13 13 -32 24 -41 24 -10 0 -14 3 -11 7 4 3 2 12 -4 19 -7 8 -7 14
1 19 5 3 10 3 10 -1 0 -4 10 1 21 12 16 14 23 15 26 7 3 -9 10 -10 24 -3 10 6
30 8 44 6 14 -3 23 -1 20 3 -5 9 102 24 115 16 4 -3 10 -1 12 4 1 6 15 11 30
13 15 2 30 7 34 11 4 4 20 7 35 7 15 0 29 5 31 10 2 6 13 12 25 13 12 0 19 5
17 9 -3 4 1 8 9 8 18 0 29 72 13 82 -7 5 -7 8 -1 9 6 0 22 2 37 4 17 2 31 -2
36 -10 4 -8 24 -15 45 -17 20 -1 37 -5 37 -9 0 -3 31 -6 69 -5 38 0 67 4 65 7
-2 4 5 9 16 12 13 3 18 1 13 -6 -4 -7 2 -8 18 -3 13 4 42 10 63 12 22 2 45 9
51 14 7 5 15 6 19 2 4 -4 14 2 22 13 9 12 18 16 22 10 9 -13 32 -18 32 -7 0 4
14 16 30 26 17 9 28 21 25 26 -3 4 12 7 34 6 l38 -2 2 69 c3 101 -20 160 -88
228 -96 95 -25 89 -1035 88 -485 0 -893 -4 -908 -9z m420 -1338 c6 -2 8 -21 5
-42 -3 -22 -1 -40 4 -40 15 0 13 -41 -3 -47 -8 -3 -14 -9 -14 -13 0 -5 18 -1
40 7 27 11 40 22 40 35 0 13 7 18 25 18 16 0 25 6 25 15 0 17 -16 20 -25 5 -3
-5 -13 -10 -21 -10 -10 0 -14 13 -14 48 0 42 3 50 25 60 29 13 40 2 31 -33 -5
-19 5 -61 20 -84 3 -3 19 10 54 41 10 9 22 13 26 10 5 -4 3 0 -4 9 -10 14 -10
18 3 23 10 3 15 -1 15 -12 0 -10 7 -27 15 -38 11 -13 13 -14 9 -3 -3 11 2 18
15 22 12 3 21 11 21 19 0 10 -3 9 -10 -2 -8 -11 -9 -9 -8 13 3 33 23 36 32 5
9 -36 7 -50 -6 -42 -9 6 -9 3 0 -9 13 -16 8 -42 -7 -33 -4 3 -8 -4 -8 -15 -1
-11 2 -17 8 -14 5 4 10 -4 10 -17 1 -13 2 -30 3 -38 1 -8 -2 -23 -7 -32 -5
-12 -3 -18 5 -19 9 0 8 -2 -2 -6 -8 -4 -21 -15 -30 -26 -15 -18 -16 -18 -14
10 1 16 7 27 13 25 7 -1 9 3 5 9 -3 6 0 15 7 20 11 7 11 9 1 9 -7 0 -15 -7
-19 -16 -4 -10 -8 -12 -12 -5 -5 7 -18 7 -44 0 -21 -5 -35 -14 -32 -19 3 -4
-3 -7 -12 -5 -10 1 -17 8 -15 15 2 8 -5 9 -19 5 -12 -4 -19 -3 -16 2 3 5 -3 9
-14 9 -24 0 -24 -11 -1 -26 15 -10 15 -11 -3 -4 -11 3 -30 9 -42 11 -13 3 -20
9 -17 14 3 5 -7 4 -21 -3 -19 -8 -25 -17 -21 -31 3 -11 1 -16 -3 -11 -5 5 -11
110 -13 234 -4 158 -3 193 3 115 4 -60 12 -111 17 -113z m877 -65 c3 -12 7
-35 9 -50 3 -16 10 -35 17 -43 7 -8 7 -14 1 -14 -5 0 -12 -6 -15 -14 -4 -10 0
-12 14 -9 14 4 19 0 19 -16 0 -24 20 -20 37 9 10 15 10 22 -1 33 -11 11 -11
16 0 32 8 10 14 15 15 9 0 -5 2 -20 4 -34 1 -14 -2 -31 -8 -38 -9 -11 -7 -13
9 -10 24 4 43 20 37 32 -3 4 -9 2 -14 -5 -5 -8 -9 -9 -10 -4 -4 47 -3 63 3 59
4 -3 8 -12 8 -20 0 -8 5 -12 10 -9 6 4 9 1 8 -7 -2 -7 12 -19 30 -27 38 -17
44 -35 6 -21 -28 11 -54 -5 -46 -27 3 -10 7 -9 19 2 17 17 33 20 33 5 0 -5 -4
-10 -8 -10 -5 0 -14 -11 -20 -25 -9 -19 -9 -25 0 -25 6 0 9 -2 6 -5 -10 -10
-38 7 -31 19 4 6 -1 5 -10 -2 -14 -12 -17 -11 -22 11 -8 32 -33 42 -55 22 -19
-17 -50 -20 -50 -5 0 6 10 10 23 10 12 0 18 4 12 8 -28 20 -37 42 -25 57 14
16 10 18 -14 9 -9 -3 -13 -10 -10 -15 3 -5 -6 -9 -19 -9 -16 0 -26 -7 -30 -20
-3 -11 -10 -20 -17 -20 -6 0 -9 4 -6 9 4 5 -4 6 -16 3 -20 -6 -19 -8 14 -16
37 -9 61 -36 33 -36 -8 0 -18 0 -22 0 -5 0 -8 5 -8 12 0 6 -6 13 -12 16 -7 2
-13 -3 -13 -12 0 -9 -6 -13 -14 -10 -8 3 -12 13 -10 22 5 15 4 14 -9 -1 -11
-13 -16 -15 -19 -5 -3 7 2 18 11 25 14 10 14 13 0 30 -11 11 -14 25 -10 37 7
17 8 18 14 3 7 -18 37 -24 37 -8 0 15 29 21 56 11 17 -7 23 -7 19 0 -3 6 -2
10 4 10 5 0 11 -4 13 -10 2 -6 8 -6 18 0 12 8 11 11 -7 16 -13 4 -20 11 -17
16 3 5 13 7 23 3 13 -5 14 -4 3 7 -11 11 -17 9 -33 -11 -11 -13 -23 -21 -26
-17 -4 4 -1 11 7 16 16 10 14 12 -14 27 -12 7 -15 13 -7 17 6 4 11 2 11 -3 0
-6 9 -11 19 -11 21 0 37 17 26 28 -3 3 -10 0 -15 -8 -8 -12 -10 -11 -10 5 0
29 38 31 45 2z"/>
<path d="M4100 11435 c0 -42 -11 -58 -25 -35 -12 20 -83 11 -112 -14 -25 -22
-28 -31 -28 -86 0 -55 3 -64 28 -86 30 -26 83 -32 118 -14 13 7 19 7 19 0 0
-5 14 -10 30 -10 l30 0 0 145 0 145 -30 0 c-29 0 -30 -2 -30 -45z"/>
<path d="M6200 11435 c0 -42 -2 -45 -19 -35 -35 18 -86 12 -114 -14 -47 -44
-44 -146 6 -181 25 -17 80 -20 108 -5 13 7 19 7 19 0 0 -5 14 -10 30 -10 l30
0 0 145 0 145 -30 0 c-29 0 -30 -2 -30 -45z"/>
<path d="M3467 11428 c-8 -24 -31 -87 -50 -140 l-36 -98 28 0 c20 0 31 7 39
25 10 22 18 25 67 25 50 0 55 -2 61 -25 5 -19 13 -25 35 -25 16 0 29 3 29 8 0
4 -22 66 -48 137 -46 127 -48 130 -78 133 -29 3 -33 0 -47 -40z"/>
<path d="M3680 11300 l0 -110 30 0 30 0 0 73 c0 88 7 99 51 95 l34 -3 3 -82 3
-83 29 0 30 0 0 85 c0 78 -2 88 -25 110 -26 27 -72 33 -106 15 -13 -7 -19 -7
-19 0 0 5 -13 10 -30 10 l-30 0 0 -110z"/>
<path d="M4229 11381 c-25 -25 -29 -37 -29 -81 0 -44 4 -56 29 -81 34 -34 93
-40 123 -12 17 15 18 15 18 0 0 -12 9 -17 30 -17 l30 0 0 110 0 110 -30 0
c-21 0 -30 -5 -30 -17 0 -15 -1 -15 -18 0 -30 28 -89 22 -123 -12z"/>
<path d="M4480 11300 l0 -110 30 0 29 0 3 83 c3 82 3 82 31 85 46 6 57 -12 57
-94 l0 -74 30 0 30 0 0 74 c0 82 11 100 57 94 28 -3 28 -3 31 -85 l3 -83 29 0
30 0 0 85 c0 78 -2 88 -25 110 -31 32 -93 34 -119 6 -18 -20 -18 -20 -39 0
-23 22 -86 26 -105 7 -9 -9 -12 -9 -12 0 0 7 -13 12 -30 12 l-30 0 0 -110z"/>
<path d="M4913 11386 c-25 -22 -28 -31 -28 -86 0 -55 3 -64 28 -86 30 -26 83
-32 118 -14 13 7 19 7 19 0 0 -5 14 -10 30 -10 l30 0 0 110 0 110 -29 0 c-16
0 -31 -6 -34 -12 -4 -10 -7 -10 -18 0 -22 21 -85 15 -116 -12z"/>
<path d="M5160 11300 l0 -110 30 0 30 0 0 73 c0 88 7 99 51 95 l34 -3 3 -82 3
-83 30 0 31 0 -4 91 c-3 81 -6 93 -27 110 -26 21 -71 25 -102 9 -13 -7 -19 -7
-19 0 0 5 -13 10 -30 10 l-30 0 0 -110z"/>
<path d="M5537 11384 c-47 -47 -44 -144 6 -179 25 -17 80 -20 108 -5 13 7 19
7 19 0 0 -5 14 -10 30 -10 l30 0 0 110 0 110 -30 0 c-16 0 -30 -5 -30 -10 0
-7 -6 -7 -19 0 -36 19 -86 12 -114 -16z"/>
<path d="M5780 11300 l0 -110 30 0 30 0 0 73 c0 80 9 97 52 97 37 0 48 -24 48
-104 0 -64 1 -66 25 -66 25 0 25 1 25 85 0 78 -2 88 -25 110 -26 27 -72 33
-106 15 -13 -7 -19 -7 -19 0 0 5 -13 10 -30 10 l-30 0 0 -110z"/>
<path d="M4290 10735 l0 -145 30 0 c17 0 30 5 30 12 0 9 3 9 12 0 7 -7 31 -12
54 -12 69 0 115 65 99 139 -14 65 -89 101 -146 71 -17 -10 -19 -7 -19 35 0 43
-1 45 -30 45 l-30 0 0 -145z"/>
<path d="M5400 10735 l0 -145 30 0 30 0 0 145 0 145 -30 0 -30 0 0 -145z"/>
<path d="M6200 10835 c0 -42 -2 -45 -19 -35 -25 13 -77 13 -102 0 -25 -14 -49
-62 -49 -100 0 -38 24 -86 49 -100 25 -13 77 -13 102 0 13 7 19 7 19 0 0 -5
14 -10 30 -10 l30 0 0 145 0 145 -30 0 c-29 0 -30 -2 -30 -45z"/>
<path d="M3400 10731 l0 -141 30 0 29 0 3 87 3 86 58 -86 c51 -77 60 -87 87
-87 l31 0 -3 138 -3 137 -27 3 -28 3 0 -98 0 -98 -63 95 c-50 77 -67 96 -90
98 l-27 3 0 -140z"/>
<path d="M5080 10731 l0 -141 30 0 31 0 -3 138 -3 137 -27 3 -28 3 0 -140z"/>
<path d="M3827 10789 c-37 -28 -52 -88 -33 -132 19 -46 51 -67 102 -67 47 0
94 30 94 61 0 24 -45 27 -58 3 -6 -10 -20 -14 -43 -12 -40 4 -59 40 -43 86 11
32 62 43 84 18 19 -23 60 -21 60 3 0 54 -111 82 -163 40z"/>
<path d="M4067 10790 c-31 -25 -51 -80 -42 -120 17 -78 124 -107 187 -51 29
26 33 35 33 81 0 46 -4 55 -33 81 -40 36 -105 40 -145 9z"/>
<path d="M4577 10784 c-68 -68 -29 -194 60 -194 19 0 43 5 54 10 13 7 19 7 19
0 0 -5 14 -10 30 -10 l30 0 0 110 0 110 -30 0 c-16 0 -30 -5 -30 -10 0 -7 -6
-7 -19 0 -36 19 -86 12 -114 -16z"/>
<path d="M4820 10700 l0 -110 30 0 30 0 0 69 c0 71 7 86 45 93 27 4 35 58 9
58 -10 0 -26 -7 -36 -17 -17 -15 -18 -15 -18 0 0 12 -9 17 -30 17 l-30 0 0
-110z"/>
<path d="M5205 10785 c-14 -13 -25 -30 -25 -37 0 -26 30 -56 63 -63 53 -12 70
-24 56 -41 -15 -18 -43 -18 -59 1 -16 19 -60 20 -60 1 0 -27 50 -56 96 -56 50
0 84 26 84 63 0 31 -25 53 -78 67 -32 8 -42 16 -40 28 4 22 46 28 54 8 7 -18
64 -23 64 -6 0 6 -11 22 -25 35 -18 19 -35 25 -65 25 -30 0 -47 -6 -65 -25z"/>
<path d="M5547 10799 c-24 -14 -47 -62 -47 -99 0 -38 24 -86 49 -100 25 -13
77 -13 102 0 13 7 19 7 19 0 0 -5 14 -10 30 -10 l30 0 0 110 0 110 -30 0 c-16
0 -30 -5 -30 -10 0 -7 -6 -7 -19 0 -25 13 -81 13 -104 -1z"/>
<path d="M5780 10700 l0 -110 30 0 30 0 0 74 c0 82 11 100 57 94 28 -3 28 -3
31 -85 l3 -83 29 0 30 0 0 85 c0 78 -2 88 -25 110 -26 27 -72 33 -106 15 -13
-7 -19 -7 -19 0 0 5 -13 10 -30 10 l-30 0 0 -110z"/>
<path d="M6330 10792 c-23 -19 -30 -66 -13 -83 5 -5 32 -18 59 -27 54 -20 65
-45 21 -50 -18 -2 -29 2 -33 12 -7 18 -64 22 -64 6 0 -6 11 -22 25 -35 48 -49
155 -25 155 34 0 34 -25 59 -68 67 -35 7 -57 28 -47 44 9 15 41 12 55 -5 14
-17 60 -20 60 -5 0 6 -11 22 -25 35 -30 31 -92 34 -125 7z"/>
<path d="M1079 10453 c-4 -114 4 -219 17 -226 19 -11 18 -31 -1 -23 -13 5 -15
-15 -15 -143 l0 -148 32 -7 c17 -3 34 -3 38 1 8 11 -13 550 -22 559 -5 4 -8 1
-8 -6 0 -11 -3 -11 -12 -2 -17 17 -28 15 -29 -5z"/>
<path d="M2848 8630 c-20 -4 -60 -18 -90 -33 -103 -51 -383 -120 -453 -111
-18 2 -45 -6 -72 -22 -29 -17 -65 -27 -106 -31 -34 -3 -69 -9 -77 -13 -9 -5
-45 -12 -80 -16 -36 -3 -83 -15 -105 -26 -22 -11 -65 -21 -95 -24 -30 -2 -73
-7 -95 -10 -52 -9 -56 -9 -88 0 -15 3 -27 2 -27 -3 0 -5 -15 -14 -33 -20 -19
-7 -56 -26 -83 -43 -61 -40 -71 -41 -78 -14 -5 18 -8 19 -16 6 -6 -10 -10 -11
-10 -2 0 6 -7 12 -15 12 -8 0 -15 6 -15 13 0 9 -9 12 -28 9 -19 -2 -36 4 -57
22 -47 42 -59 51 -65 51 -3 0 -22 17 -42 38 -21 21 -38 33 -38 27 0 -6 -13 -1
-30 11 -16 13 -33 20 -36 16 -4 -4 -13 1 -20 11 -7 9 -17 18 -23 18 -6 1 -15
2 -21 3 -5 0 -10 8 -10 16 0 8 -6 15 -14 15 -8 0 -21 7 -30 15 -11 12 -16 12
-23 3 -4 -7 -9 -212 -11 -455 -3 -434 -2 -443 17 -443 11 0 21 -5 23 -12 2 -6
11 -12 19 -14 7 -1 23 -5 34 -9 16 -6 15 -4 -4 11 l-25 18 40 11 c21 6 38 16
37 21 -1 5 13 10 30 11 18 0 26 -1 20 -4 -7 -2 -13 -9 -13 -14 0 -4 7 -6 16
-2 24 9 36 -18 16 -34 -9 -7 -24 -12 -32 -13 -13 0 -13 1 0 10 26 16 3 22 -27
6 -16 -9 -22 -15 -12 -16 19 0 18 -25 -1 -60 -7 -14 -14 -27 -14 -30 -1 -6 0
-6 -46 14 -19 8 -30 15 -23 16 15 0 11 27 -7 43 -10 9 -11 9 -6 0 4 -7 2 -13
-3 -13 -6 0 -10 10 -8 22 1 14 -4 23 -16 26 -14 3 -17 -3 -15 -30 1 -18 10
-40 20 -49 10 -9 14 -20 10 -24 -4 -4 3 -4 15 -1 13 4 31 2 40 -4 17 -10 16
-11 -2 -7 -24 5 -49 -18 -42 -38 3 -7 -1 -16 -9 -19 -32 -12 -13 -26 28 -20
31 5 39 4 33 -5 -4 -7 -16 -11 -26 -8 -12 3 -19 0 -19 -9 0 -10 -6 -11 -25 -4
-23 9 -25 7 -25 -19 0 -24 6 -31 31 -40 27 -9 30 -13 18 -27 -11 -14 -9 -15
27 -9 64 10 114 36 114 57 0 11 4 17 9 14 4 -3 21 5 36 18 32 28 69 38 84 23
7 -7 8 -3 5 10 -5 18 5 24 88 52 51 17 100 31 109 31 8 0 24 7 35 15 19 15 18
16 -8 38 -34 28 -36 41 -5 34 19 -5 18 -3 -8 18 -27 23 -31 23 -47 8 -17 -15
-20 -15 -35 0 -11 11 -13 17 -5 17 7 0 12 9 12 20 0 16 7 20 35 20 19 0 35 5
35 10 0 6 21 10 46 10 38 0 45 -3 40 -16 -3 -9 -6 -18 -6 -20 0 -3 -5 -2 -10
1 -6 4 -18 1 -26 -6 -12 -10 -17 -10 -27 1 -7 7 -7 10 -1 7 6 -4 20 0 30 8 18
13 17 14 -9 11 -15 -2 -33 -8 -38 -13 -15 -15 26 -36 57 -30 19 3 24 0 24 -15
0 -11 5 -16 10 -13 5 3 10 1 10 -4 0 -10 -9 -13 -30 -13 -3 0 -13 -8 -23 -18
-16 -15 -16 -18 -2 -30 13 -11 15 -10 10 1 -3 9 1 15 12 15 10 0 29 4 42 8 21
7 23 6 17 -10 -5 -17 -4 -17 6 -3 7 8 22 19 33 23 16 6 17 9 5 16 -13 8 -12
10 3 10 9 0 17 8 17 18 0 11 3 13 8 5 5 -8 12 -8 25 2 18 13 18 14 0 23 -12 7
-25 7 -36 0 -10 -5 -31 -13 -47 -18 -23 -7 -29 -5 -33 10 -4 16 -1 17 20 9 16
-6 31 -6 41 1 15 8 15 10 -3 11 -11 1 -26 2 -33 2 -10 -1 -10 2 0 14 8 10 14
11 16 4 7 -21 22 -11 23 17 0 15 3 22 5 15 3 -7 11 -10 18 -7 7 3 13 -2 13
-11 0 -8 -5 -15 -10 -15 -6 0 -7 -3 -4 -6 4 -4 13 -1 22 6 11 9 12 16 4 26
-16 19 -7 37 21 41 24 3 60 29 58 42 -2 18 3 31 12 31 16 0 12 -40 -5 -46 -8
-4 -12 -11 -8 -17 3 -5 2 -7 -4 -4 -6 4 -21 -5 -34 -19 -20 -21 -20 -24 -5
-18 15 6 17 4 11 -7 -6 -11 -5 -12 6 -1 7 6 18 12 24 12 5 0 3 -5 -5 -10 -12
-8 -9 -10 13 -10 18 0 26 4 21 11 -4 8 1 9 15 4 13 -4 29 -1 38 7 12 9 15 9 9
1 -4 -7 -3 -13 3 -13 19 0 61 23 62 34 1 6 2 22 4 36 4 50 5 55 13 44 4 -6 26
-13 50 -17 32 -4 42 -2 42 9 0 8 7 14 16 14 12 0 15 -7 12 -25 -3 -13 -1 -22
3 -19 5 3 9 16 9 29 0 13 6 30 13 37 24 24 9 39 -21 21 l-27 -17 22 22 c13 13
30 20 43 17 25 -5 40 -15 22 -15 -7 0 -12 -4 -12 -9 0 -5 7 -8 16 -7 29 2 24
-18 -11 -44 -43 -32 -50 -64 -19 -95 19 -19 32 -23 69 -20 25 2 45 -1 45 -6 0
-5 14 -7 32 -4 29 5 30 4 17 -11 -8 -10 -9 -15 -4 -12 6 4 17 3 25 -3 11 -6 8
-9 -12 -9 -17 0 -28 -5 -28 -14 0 -14 32 -30 83 -42 l28 -6 -28 -15 c-15 -8
-44 -16 -63 -18 -19 -2 -51 -8 -70 -13 -30 -8 -32 -10 -15 -16 11 -4 27 -11
37 -16 10 -6 20 -5 27 3 5 7 26 14 45 15 28 2 34 -1 30 -13 -8 -21 16 -19 32
3 13 16 14 16 7 -2 -4 -13 -3 -17 5 -12 7 4 12 14 12 22 0 10 12 14 45 12 25
-1 42 -4 37 -7 -5 -3 10 -16 34 -29 24 -12 44 -20 44 -17 0 2 -13 11 -30 20
-16 9 -30 21 -30 28 0 8 2 9 8 1 4 -6 31 -23 60 -38 28 -14 52 -31 52 -38 0
-6 -9 -3 -20 7 -11 10 -22 16 -25 13 -5 -5 78 -68 90 -68 3 0 3 6 -1 13 -5 7
0 6 11 -3 26 -21 55 -49 55 -55 1 -10 31 -81 42 -100 28 -48 37 -74 49 -135 6
-36 13 -71 15 -79 6 -18 142 -10 154 9 4 7 12 10 17 7 5 -3 15 -2 22 3 11 6
11 17 -4 61 -9 30 -22 63 -28 74 -6 11 -11 41 -12 68 0 42 2 47 23 47 15 0 22
-6 22 -20 0 -11 7 -23 15 -26 8 -4 13 -10 10 -14 -3 -4 2 -10 9 -13 18 -7 17
-47 -1 -47 -7 0 -13 -7 -13 -16 0 -8 -4 -13 -9 -10 -10 7 -8 -9 4 -37 4 -10
13 -16 20 -13 9 3 11 -3 8 -17 -4 -22 -4 -22 16 2 12 13 21 20 21 15 0 -19 50
42 76 94 l29 57 -1 595 c-1 638 -2 661 -51 685 -12 6 -27 16 -36 23 -8 7 -27
10 -45 6 -17 -4 -44 -2 -59 3 -15 5 -44 6 -65 3z m-712 -600 c19 0 34 -4 34
-9 0 -4 -11 -6 -25 -3 -20 3 -24 1 -19 -12 5 -13 -2 -16 -37 -17 -34 0 -39 -2
-24 -9 l20 -9 -20 0 c-11 -1 -31 -4 -45 -7 -20 -4 -22 -3 -10 5 9 7 10 11 3
11 -6 0 -15 -4 -18 -10 -3 -5 -21 -10 -38 -10 -19 0 -27 4 -20 8 7 4 9 13 4
21 -7 10 -9 10 -14 -2 -4 -10 -13 -13 -26 -10 -15 4 -21 1 -21 -11 0 -19 -21
-21 -38 -4 -9 9 -12 9 -12 -2 -1 -11 -3 -11 -11 3 -5 9 -15 17 -22 17 -7 0
-17 11 -23 24 -9 20 -9 23 8 18 10 -2 19 -12 19 -21 1 -14 2 -14 6 1 4 14 15
16 81 12 42 -3 83 -7 89 -9 7 -2 16 2 20 10 8 13 65 25 91 18 8 -1 29 -3 48
-3z m125 -111 c53 0 115 -7 142 -16 48 -16 66 -30 23 -19 -16 4 -26 1 -30 -9
-6 -17 0 -20 56 -30 46 -7 53 -18 36 -55 -11 -25 -17 -29 -43 -24 -28 5 -28 4
-11 -9 17 -12 17 -14 2 -20 -9 -4 -16 -2 -16 3 0 5 -21 15 -47 22 -26 6 -42
13 -35 16 21 7 13 20 -17 27 -17 3 -39 2 -50 -4 -13 -7 -22 -8 -26 -1 -3 5
-13 10 -21 10 -9 0 -12 -5 -8 -11 4 -7 -2 -7 -16 1 -22 12 -22 13 -5 22 10 6
41 8 72 4 34 -4 52 -3 48 3 -3 6 -12 8 -19 5 -8 -3 -17 0 -21 6 -4 7 -1 10 8
8 9 -2 15 2 14 7 -1 6 -12 10 -24 10 -13 -1 -23 5 -23 13 0 7 7 12 16 10 10
-2 19 3 22 10 3 11 -11 13 -67 10 -54 -2 -71 0 -71 10 0 7 4 11 9 8 4 -3 50
-6 102 -7z m-831 -59 c6 0 9 4 6 8 -2 4 10 8 27 9 18 1 24 -1 13 -4 -16 -4
-11 -8 20 -19 59 -21 94 -19 89 5 -2 14 1 18 11 14 7 -3 11 -9 8 -14 -3 -5 0
-9 5 -9 6 0 11 7 11 15 0 8 4 15 10 15 18 0 -3 -31 -31 -46 -16 -8 -29 -19
-29 -24 0 -13 7 -13 30 0 13 7 21 7 25 0 3 -5 -2 -10 -12 -10 -10 0 -39 -11
-65 -25 -26 -14 -52 -25 -58 -25 -12 0 -9 22 5 32 6 4 -5 10 -23 14 -18 4 -37
15 -43 26 -7 13 -18 18 -30 15 -10 -3 -17 -1 -14 3 3 5 -4 14 -16 21 -17 9
-19 13 -8 20 8 5 22 3 36 -6 12 -8 27 -15 33 -15z"/>
<path d="M1494 8470 c-12 -4 -48 -11 -80 -14 -176 -19 -264 -40 -263 -64 0 -9
3 -12 5 -5 4 8 13 9 28 3 13 -5 32 -7 42 -6 11 2 22 -2 26 -8 8 -11 12 14 8
43 -1 9 4 12 15 7 9 -3 21 -6 26 -6 6 0 7 -4 4 -10 -3 -5 3 -10 15 -10 14 0
19 4 15 13 -4 6 0 4 8 -6 10 -12 17 -14 22 -8 3 6 13 11 21 11 12 0 12 -3 2
-20 -21 -32 3 -42 35 -15 15 14 27 27 27 30 -1 21 2 25 16 25 14 0 15 -2 3
-17 -11 -13 -7 -12 16 3 17 12 39 24 49 28 15 5 17 4 8 -7 -7 -8 -8 -18 -4
-22 4 -5 1 -4 -7 0 -11 6 -13 4 -8 -9 4 -10 7 -20 7 -22 0 -2 5 -4 11 -4 5 0
7 5 4 10 -3 6 0 10 7 10 8 0 31 9 53 20 22 11 33 20 26 20 -7 0 -11 6 -8 14 4
11 -1 13 -24 11 -16 -2 -29 -1 -29 3 0 11 -51 12 -76 2z"/>
<path d="M4880 8270 l0 -151 28 3 c27 3 27 4 30 80 2 67 6 79 24 89 15 8 27 8
44 0 22 -10 24 -16 24 -91 l0 -80 31 0 31 0 -4 90 c-2 75 -6 93 -24 111 -24
23 -85 29 -109 9 -12 -10 -14 -4 -17 37 -3 44 -5 48 -30 51 l-28 3 0 -151z"/>
<path d="M5410 8270 l0 -151 28 3 27 3 0 145 0 145 -27 3 -28 3 0 -151z"/>
<path d="M6440 8371 l0 -50 -33 14 c-44 18 -82 9 -113 -28 -23 -27 -26 -38
-22 -86 4 -44 10 -59 32 -78 32 -27 81 -30 114 -7 20 14 22 14 22 -1 0 -12 7
-15 28 -13 l27 3 0 145 0 145 -27 3 c-27 3 -28 2 -28 -47z"/>
<path d="M7010 8270 l0 -151 28 3 c26 3 27 4 30 78 2 56 7 78 19 88 47 34 73
1 73 -94 l0 -74 30 0 30 0 0 74 c0 41 -4 86 -10 101 -13 34 -69 59 -105 45
-15 -6 -28 -10 -30 -10 -2 0 -5 19 -7 43 -3 38 -6 42 -30 45 l-28 3 0 -151z"/>
<path d="M3485 8383 c-4 -10 -26 -73 -50 -140 l-44 -123 29 0 c23 0 31 5 36
25 6 23 11 25 63 25 52 0 59 -3 69 -25 8 -17 20 -25 37 -25 14 0 25 3 25 7 0
4 -21 67 -47 140 -48 132 -48 133 -79 133 -21 0 -34 -6 -39 -17z"/>
<path d="M5610 8260 l0 -140 30 0 c30 0 30 1 30 55 l0 55 44 0 c73 0 110 46
93 112 -10 39 -54 58 -132 58 l-65 0 0 -140z"/>
<path d="M4215 8342 c-11 -2 -26 -9 -32 -14 -9 -7 -13 -7 -13 1 0 6 -13 11
-30 11 l-30 0 0 -110 0 -110 30 0 30 0 0 74 c0 95 26 128 73 94 12 -10 17 -32
19 -88 3 -74 4 -75 31 -78 l27 -3 0 84 c0 69 -4 89 -20 109 -20 26 -50 37 -85
30z"/>
<path d="M4434 8343 c-81 -16 -99 -173 -25 -213 30 -15 82 -12 103 7 17 15 18
15 18 0 0 -12 9 -17 30 -17 l30 0 0 110 0 110 -30 0 c-16 0 -30 -4 -30 -9 0
-6 -16 -3 -35 5 -19 7 -36 13 -37 13 -2 -1 -13 -4 -24 -6z"/>
<path d="M4694 8336 c-17 -8 -39 -24 -48 -37 -34 -49 -10 -150 40 -169 49 -19
94 -12 125 20 17 16 28 34 24 40 -9 15 -51 12 -65 -5 -15 -18 -51 -20 -68 -3
-7 7 -12 31 -12 55 0 36 4 45 25 55 19 9 29 7 50 -6 14 -10 38 -16 53 -14 l26
3 -29 32 c-35 37 -78 48 -121 29z"/>
<path d="M5203 8343 c-41 -8 -73 -59 -73 -115 0 -41 5 -54 29 -79 34 -33 83
-39 119 -13 20 14 22 14 22 -1 0 -12 7 -15 28 -13 l27 3 3 108 3 107 -30 0
c-16 0 -31 -5 -33 -11 -2 -6 -14 -5 -33 5 -17 9 -32 15 -35 15 -3 -1 -15 -4
-27 -6z"/>
<path d="M6074 8343 c-81 -16 -99 -173 -25 -213 28 -15 73 -12 99 6 20 14 22
14 22 0 0 -11 10 -16 30 -16 l30 0 0 110 0 110 -30 0 c-16 0 -30 -4 -30 -9 0
-6 -16 -3 -35 5 -19 7 -36 13 -37 13 -2 -1 -13 -4 -24 -6z"/>
<path d="M6600 8332 c-49 -24 -75 -78 -61 -130 15 -53 41 -74 100 -80 46 -4
52 -2 83 29 l33 34 -35 3 c-19 2 -36 -1 -38 -7 -7 -20 -70 -13 -82 9 -10 19
-8 20 70 20 l80 0 0 33 c0 42 -24 75 -66 93 -42 18 -42 18 -84 -4z"/>
<path d="M6845 8343 c-32 -8 -55 -34 -55 -63 0 -34 23 -55 78 -69 44 -12 56
-35 23 -46 -21 -6 -51 3 -51 16 0 5 -14 9 -31 9 -24 0 -30 -3 -25 -16 3 -9 6
-17 6 -20 0 -10 63 -34 92 -34 50 0 78 24 78 66 0 36 0 36 -93 73 -16 6 -27
17 -25 24 7 18 43 20 58 2 14 -17 60 -21 60 -4 0 23 -21 47 -51 58 -18 6 -35
10 -38 10 -3 -1 -15 -4 -26 -6z"/>
<path d="M3690 8230 l0 -110 30 0 29 0 3 78 c3 76 3 77 31 80 23 3 27 8 27 33
0 31 -25 40 -48 17 -9 -9 -12 -9 -12 0 0 7 -13 12 -30 12 l-30 0 0 -110z"/>
<path d="M3850 8255 c0 -78 2 -88 25 -110 26 -27 72 -33 106 -15 13 7 19 7 19
0 0 -5 14 -10 30 -10 l30 0 0 110 0 110 -30 0 -30 0 0 -74 c0 -82 -11 -100
-57 -94 -28 3 -28 3 -31 86 l-3 82 -29 0 -30 0 0 -85z"/>
<path d="M5850 8230 l0 -110 30 0 30 0 0 68 c0 77 5 89 40 93 19 3 26 11 28
32 4 30 -13 36 -49 17 -13 -7 -19 -7 -19 0 0 5 -13 10 -30 10 l-30 0 0 -110z"/>
<path d="M2297 7557 c-4 -11 -4 -23 -1 -29 3 -5 -2 -18 -11 -28 -11 -12 -13
-20 -5 -25 16 -10 1 -27 -19 -21 -10 4 -8 0 6 -13 12 -10 19 -21 16 -25 -4 -3
-2 -6 3 -7 5 0 18 -3 29 -6 11 -2 31 -6 45 -8 14 -1 28 -3 32 -4 4 0 5 -8 2
-16 -3 -8 -2 -20 2 -27 5 -7 9 -17 9 -23 0 -5 8 -9 17 -7 9 1 19 -2 22 -7 11
-17 -10 -20 -49 -7 -48 17 -69 14 -73 -9 -3 -10 0 -15 7 -11 6 4 13 -5 17 -21
3 -15 14 -34 23 -41 14 -13 14 -13 -4 -10 -10 2 -22 13 -25 25 -4 17 -9 20
-20 13 -9 -5 -19 -5 -26 1 -8 7 -15 6 -20 -2 -5 -8 -3 -9 6 -4 9 6 11 4 5 -4
-5 -9 -10 -10 -18 -2 -14 14 10 41 31 34 14 -4 15 -3 2 5 -12 9 -11 14 9 31
13 11 28 18 32 15 5 -3 9 2 9 11 0 9 -4 14 -9 11 -4 -3 -16 3 -26 14 -10 11
-24 20 -32 20 -8 0 -12 4 -9 8 3 5 -1 9 -9 9 -22 0 -13 -20 18 -40 15 -9 25
-22 22 -27 -4 -6 -11 -7 -17 -4 -7 5 -9 1 -5 -9 3 -9 0 -18 -9 -21 -17 -6 -29
17 -21 39 4 8 2 17 -3 20 -9 5 -15 -15 -11 -37 0 -5 -3 -8 -9 -8 -5 0 -10 8
-10 17 0 12 -3 14 -11 6 -13 -13 -4 -33 17 -33 8 0 14 -5 14 -11 0 -5 5 -7 10
-4 13 8 13 -5 0 -25 -8 -13 -10 -12 -10 3 0 21 -16 22 -24 1 -9 -23 -7 -64 3
-64 4 0 4 -23 0 -52 -5 -29 -7 -53 -5 -55 6 -7 126 -7 132 0 4 4 12 3 19 -3
13 -11 57 -2 50 11 -3 4 -11 6 -18 3 -7 -2 -21 4 -31 15 -14 15 -15 21 -4 27
7 4 10 4 6 -1 -9 -9 9 -35 24 -35 5 0 6 6 2 13 -4 6 4 2 17 -9 13 -12 41 -25
62 -28 35 -6 37 -5 37 18 0 14 4 27 9 30 16 10 18 41 3 55 -12 12 -13 10 -8
-17 8 -33 5 -36 -38 -46 -26 -6 -27 -6 -13 9 9 8 20 14 25 13 6 -2 10 0 11 5
3 20 0 27 -10 27 -5 0 -7 -6 -4 -12 4 -7 -4 -1 -17 15 -30 34 -44 35 -22 2 10
-15 12 -25 5 -25 -6 0 -11 7 -11 15 0 9 -6 12 -15 9 -15 -6 -21 7 -8 20 11 10
12 37 2 30 -5 -3 -9 -1 -9 5 0 6 -7 8 -15 4 -10 -3 -15 0 -13 8 2 7 -4 13 -12
14 -8 0 -16 8 -18 17 -3 13 2 16 20 11 46 -11 83 -10 106 5 20 13 26 10 23
-10 0 -5 5 -8 12 -8 9 0 8 -3 -2 -9 -11 -7 -9 -10 8 -16 11 -3 21 -11 21 -16
0 -6 -6 -7 -12 -3 -7 4 -5 -2 5 -12 15 -16 19 -17 27 -4 5 9 5 19 -1 26 -7 8
-6 14 1 19 5 3 10 -1 10 -10 0 -9 4 -14 10 -10 5 3 6 13 3 22 -4 10 -2 14 4
10 6 -4 13 0 17 8 6 18 5 18 -30 5 -22 -9 -25 -8 -16 3 7 8 8 18 4 22 -4 5 1
6 10 2 9 -3 19 0 22 8 3 9 0 12 -10 8 -10 -4 -12 0 -8 11 4 12 2 15 -9 10 -8
-3 -18 0 -23 7 -4 8 -3 10 4 5 7 -4 12 -2 12 3 0 10 -14 15 -33 12 -4 -1 -10
6 -13 14 -4 8 -10 15 -15 15 -14 0 -6 -23 14 -41 15 -15 16 -17 2 -23 -11 -4
-14 -2 -9 6 5 7 2 8 -7 3 -8 -5 -11 -5 -7 0 4 4 3 14 -3 22 -6 7 -8 13 -3 13
5 0 2 5 -6 10 -10 6 -11 10 -2 10 6 0 12 4 12 8 0 5 -7 9 -15 9 -8 0 -15 -4
-15 -9 0 -5 -7 -2 -16 6 -8 9 -21 16 -27 16 -8 0 -7 3 2 9 21 13 5 29 -24 23
-16 -3 -24 -10 -21 -18 7 -18 -20 -37 -44 -31 -11 3 -20 0 -20 -6 0 -6 -6 -2
-14 9 -8 10 -10 21 -5 22 5 2 9 9 9 15 0 6 15 25 34 42 29 26 32 33 21 48 -12
16 -13 16 -18 -3 -7 -27 -25 -25 -29 3 -3 20 -4 20 -11 4z"/>
<path d="M2149 7299 c0 -2 -2 -17 -3 -34 -2 -16 -6 -40 -10 -52 -4 -14 -3 -23
2 -23 6 0 12 5 14 12 3 9 6 9 12 0 4 -7 2 -12 -3 -12 -6 0 -11 -13 -11 -30 0
-21 5 -30 16 -30 9 0 12 5 8 12 -4 7 -3 8 5 4 8 -6 9 -12 2 -20 -6 -7 -7 -17
-3 -22 4 -5 -2 -1 -14 9 -11 9 -25 17 -31 17 -16 0 -21 21 -13 56 7 30 6 31
-23 29 -20 -1 -31 -8 -33 -20 -3 -22 -10 -28 -34 -32 -22 -3 -25 4 -10 27 9
13 11 13 21 0 8 -11 9 -8 4 15 -3 17 -11 35 -17 40 -8 7 -9 5 -5 -7 3 -9 0
-19 -9 -22 -7 -3 -13 -2 -13 2 3 19 -2 25 -11 12 -7 -11 -10 -12 -10 -2 0 10
-3 10 -15 -1 -8 -9 -19 -17 -25 -19 -6 -2 -8 -11 -5 -21 8 -19 45 -24 45 -5 0
8 3 9 10 2 11 -11 1 -56 -11 -48 -5 3 -7 10 -4 15 4 5 1 9 -4 9 -14 0 -14 -2
4 -36 8 -16 15 -24 15 -17 0 6 9 10 20 8 25 -5 35 11 14 23 -15 8 -15 10 0 15
9 4 16 1 16 -6 0 -7 9 -1 19 12 18 23 41 22 41 -2 0 -8 -3 -8 -9 1 -7 11 -9
10 -14 -3 -4 -9 -3 -14 1 -11 11 6 52 -22 52 -35 0 -6 -6 -7 -12 -3 -10 5 -10
4 0 -7 7 -8 28 -14 48 -14 l35 0 -3 85 c-2 61 -6 84 -15 83 -7 -2 -14 2 -14 7
-1 6 -2 14 -3 19 -1 10 -15 27 -17 20z"/>
<path d="M3485 5563 c-4 -10 -26 -73 -50 -140 l-44 -123 29 0 c23 0 31 5 36
25 6 23 11 25 63 25 52 0 59 -3 69 -25 8 -17 20 -25 37 -25 14 0 25 3 25 7 0
4 -21 67 -47 140 -48 132 -48 133 -79 133 -21 0 -34 -6 -39 -17z"/>
<path d="M3741 5521 c-13 -4 -33 -18 -43 -32 -29 -38 -11 -74 44 -90 24 -7 50
-18 58 -26 13 -12 13 -15 0 -23 -21 -14 -36 -12 -54 5 -17 17 -66 20 -66 5 0
-6 11 -22 25 -35 50 -50 155 -24 155 38 0 30 -25 52 -75 69 -23 8 -40 19 -40
28 0 21 39 24 55 5 14 -16 60 -21 60 -6 0 18 -45 59 -70 64 -14 2 -36 2 -49
-2z"/>
<path d="M3943 5515 c-35 -15 -53 -57 -36 -84 5 -9 33 -25 62 -35 37 -13 51
-24 49 -35 -4 -22 -36 -26 -58 -6 -11 10 -30 15 -47 13 l-28 -3 32 -32 c41
-43 101 -46 138 -8 43 42 25 80 -51 105 -54 18 -65 43 -21 48 18 2 29 -2 33
-12 9 -24 54 -21 54 4 0 40 -76 68 -127 45z"/>
<path d="M4183 5523 c-12 -2 -34 -18 -49 -36 -23 -27 -26 -38 -22 -86 4 -44
10 -59 32 -78 32 -27 81 -30 114 -7 20 14 22 14 22 -1 0 -12 7 -15 28 -13 l27
3 3 108 3 107 -31 0 c-16 0 -30 -4 -30 -9 0 -6 -16 -3 -35 5 -19 7 -36 13 -37
13 -2 -1 -13 -4 -25 -6z"/>
<path d="M4485 5521 c-11 -5 -37 -6 -57 -3 l-38 5 0 -112 0 -112 28 3 c26 3
27 5 32 83 l5 80 40 0 40 0 3 -82 3 -83 29 0 30 0 0 69 c0 91 5 101 46 101 42
0 54 -24 54 -111 0 -56 1 -59 25 -59 25 0 25 1 25 84 0 74 -3 88 -23 111 -27
32 -87 37 -117 10 -16 -15 -21 -15 -42 -2 -33 21 -60 27 -83 18z"/>
<path d="M2666 5138 c3 -5 0 -21 -7 -35 -10 -19 -11 -28 -1 -44 14 -22 13 -22
-25 -9 -27 10 -28 10 -8 -7 22 -19 24 -36 10 -67 -6 -13 -5 -21 3 -24 24 -8
11 -31 -20 -36 -74 -12 -157 1 -115 17 7 3 6 6 -5 6 -9 1 -20 -3 -23 -9 -10
-16 -45 -12 -45 5 0 9 6 15 13 14 18 -2 57 12 57 21 0 14 -31 20 -50 10 -15
-8 -21 -6 -29 7 -8 15 -12 16 -23 5 -10 -10 -10 -17 -1 -31 18 -28 5 -59 -27
-66 -23 -5 -29 -13 -34 -43 -4 -20 -7 -49 -7 -64 0 -18 -5 -28 -14 -28 -32 0
-13 -19 28 -28 23 -6 32 -10 20 -11 -28 -1 -28 0 1 -61 13 -27 19 -48 12 -47
-16 3 -38 35 -32 46 3 5 -1 11 -9 15 -18 7 -18 5 -3 -31 13 -32 15 -38 17 -54
1 -8 6 -8 16 1 9 7 15 8 15 2 0 -14 55 -20 76 -9 12 7 15 6 10 -2 -12 -18 16
-13 30 7 13 16 14 16 7 -2 -5 -16 -3 -18 15 -14 15 4 22 2 22 -7 0 -8 8 -14
18 -14 9 0 61 -3 114 -5 62 -3 100 -1 104 5 4 7 -5 10 -22 9 -68 -5 -119 0
-104 10 12 8 10 10 -10 11 -23 0 -23 1 -5 8 11 5 24 6 28 4 4 -3 40 -7 80 -9
40 -3 95 -6 122 -9 28 -2 78 -4 113 -5 65 0 85 -16 30 -23 -23 -3 -16 -4 20
-5 32 -1 52 2 52 9 0 6 -7 9 -15 5 -8 -3 -15 0 -15 5 0 7 11 9 25 6 17 -3 24
0 22 7 -2 6 -11 10 -20 10 -9 -1 -14 2 -11 7 3 5 0 9 -5 9 -6 0 -11 -4 -11
-10 0 -15 -40 -12 -56 5 -14 13 -13 15 6 15 12 0 18 -4 15 -10 -3 -5 1 -10 10
-10 9 0 14 4 10 9 -7 12 28 23 48 15 12 -4 18 2 23 20 10 39 -3 74 -29 79 -20
4 -20 4 4 6 l25 1 2 152 c3 159 -3 222 -19 197 -6 -10 -10 -8 -18 11 -9 24
-10 24 -10 3 -1 -12 -7 -28 -14 -35 -13 -13 -17 -21 -17 -35 0 -4 -6 1 -14 12
-12 17 -13 17 -20 -8 -3 -15 -11 -27 -17 -27 -6 0 -7 -4 -4 -10 3 -6 -1 -7 -9
-4 -9 3 -16 2 -16 -4 0 -6 -13 -24 -29 -40 -21 -20 -31 -41 -33 -68 -2 -21 -7
-37 -13 -35 -5 1 -8 8 -6 15 8 28 9 126 0 126 -5 0 -9 -8 -9 -17 0 -23 -42
-44 -56 -29 -6 6 -8 31 -6 55 4 40 3 43 -17 36 -15 -5 -21 -2 -21 9 0 9 5 16
10 16 6 0 8 10 4 24 -3 14 -2 31 2 38 18 28 12 43 -7 19 -15 -18 -19 -20 -19
-7 0 10 -5 14 -11 10 -6 -3 -14 -2 -18 4 -3 6 -19 13 -34 16 -17 3 -25 1 -21
-6z"/>
<path d="M2247 5058 c-30 -29 -39 -55 -27 -78 8 -15 5 -19 -21 -24 -17 -3 -42
-15 -56 -26 -14 -11 -30 -17 -35 -14 -5 3 -15 0 -23 -6 -8 -7 -22 -9 -31 -6
-9 3 -36 9 -60 11 l-44 6 0 -46 c0 -31 -4 -44 -11 -39 -6 4 -8 20 -5 40 l7 33
-38 -5 c-21 -3 -51 -10 -66 -15 -18 -5 -36 -5 -47 1 -11 6 -21 6 -24 1 -3 -5
-14 -7 -24 -4 -20 5 -35 -23 -46 -84 -5 -31 -4 -33 27 -34 21 -1 25 -3 12 -6
-47 -11 -32 -21 36 -22 40 0 75 -3 77 -6 10 -10 -140 -5 -158 5 -27 15 -36 -7
-13 -32 15 -17 15 -20 2 -16 -12 5 -15 0 -12 -20 2 -15 0 -21 -3 -14 -3 6 -9
12 -14 12 -10 0 -8 -20 3 -37 5 -8 4 -13 -2 -13 -6 0 -11 5 -11 10 0 6 -9 19
-20 30 -11 11 -16 20 -11 20 5 0 8 12 6 26 -1 14 4 31 11 39 8 7 14 17 14 21
0 4 8 17 18 28 17 21 17 21 -4 4 -24 -21 -41 -24 -25 -5 8 10 7 19 -4 33 -17
23 -19 34 -4 34 5 0 7 -5 3 -12 -4 -7 -3 -8 4 -4 6 4 8 14 5 23 -5 11 -3 14 6
8 8 -4 6 3 -4 18 -12 19 -13 27 -4 33 8 5 9 3 4 -6 -5 -9 -4 -11 3 -6 7 4 12
15 12 24 0 14 2 15 9 2 6 -8 7 -18 5 -22 -3 -4 0 -8 5 -8 6 0 11 8 11 17 0 13
3 14 12 5 9 -9 14 -7 24 6 12 15 15 15 24 2 7 -11 10 -11 10 -2 0 7 -10 17
-22 22 -13 5 -17 9 -10 9 7 1 11 5 8 10 -4 5 0 12 6 14 10 4 10 6 0 6 -18 1
-43 -25 -34 -34 4 -4 0 -6 -8 -3 -15 5 -18 48 -5 80 4 11 0 18 -14 23 -30 9
-59 -3 -67 -28 -4 -11 -13 -27 -21 -35 -12 -12 -12 -18 2 -38 8 -13 12 -24 8
-25 -29 -3 -47 -10 -64 -25 -25 -22 -45 -26 -86 -14 -31 8 -33 7 -34 -18 -2
-24 -2 -24 -6 -4 -5 25 -7 26 -33 12 -11 -6 -21 -6 -25 -1 -7 13 -93 6 -127
-10 -24 -10 -31 -10 -46 4 -23 21 -32 21 -47 0 -8 -11 -18 -14 -31 -8 -19 8
-55 9 -106 4 -19 -2 -28 -9 -28 -20 0 -31 -12 -49 -31 -49 -10 0 -19 5 -19 10
0 6 9 10 21 10 16 0 20 5 17 28 -3 23 -7 27 -32 25 -18 -1 -34 4 -42 15 -12
15 -13 12 -14 -24 0 -34 4 -43 23 -49 l22 -8 -23 -4 c-16 -3 -22 -11 -22 -30
0 -22 4 -25 25 -21 14 3 25 1 25 -3 0 -5 -11 -11 -25 -15 -20 -5 -25 -12 -25
-39 0 -30 2 -33 30 -31 17 1 30 -1 30 -5 0 -4 10 -5 22 -1 16 4 20 2 16 -10
-4 -8 -1 -15 7 -15 7 0 11 6 8 14 -3 7 0 13 6 13 6 0 11 -7 11 -15 0 -8 5 -15
11 -15 5 0 8 4 5 8 -3 5 1 9 9 9 8 0 13 -3 11 -6 -2 -3 103 -7 235 -9 l238 -3
10 33 c5 18 10 25 10 14 1 -10 -4 -36 -11 -58 l-12 -40 -53 7 c-35 4 -53 3
-53 -4 0 -6 -4 -11 -10 -11 -5 0 -9 5 -7 12 1 7 -2 13 -8 13 -5 1 -39 5 -75
10 -102 13 -98 14 -93 -9 3 -13 2 -17 -4 -10 -10 15 -132 23 -137 9 -3 -5 -5
-4 -5 3 -1 14 -51 17 -51 2 0 -6 -9 -6 -26 0 -19 8 -31 7 -42 -2 -12 -10 -14
-10 -8 0 8 14 -17 15 -49 3 -20 -8 -20 -8 2 -15 11 -4 63 -9 114 -11 106 -5
132 -11 122 -28 -3 -7 2 -5 13 3 11 9 36 14 59 13 117 -4 135 -6 135 -12 0 -3
30 -7 68 -7 113 -2 115 -3 108 -19 -3 -9 1 -18 9 -21 7 -3 11 -12 9 -19 -6
-16 -34 -9 -31 8 1 6 -7 13 -18 15 -19 4 -19 4 -2 -15 23 -26 22 -36 -3 -23
-11 6 -20 17 -20 25 0 8 -5 15 -11 15 -5 0 -7 6 -3 13 6 10 4 10 -7 0 -7 -7
-21 -13 -31 -13 -12 0 -15 -5 -11 -16 4 -11 8 -12 13 -4 5 8 9 7 14 -5 3 -9 3
-22 -1 -28 -4 -7 1 -6 10 2 9 7 14 18 10 24 -4 7 5 2 21 -10 15 -12 34 -19 43
-16 12 5 10 -3 -7 -25 -24 -33 -54 -44 -44 -17 4 8 10 13 14 10 5 -3 11 -1 15
5 10 16 -21 12 -35 -5 -14 -17 -5 -35 17 -35 14 0 13 -4 -5 -20 -26 -24 -28
-40 -7 -40 8 0 15 -8 15 -17 0 -15 -9 -18 -50 -18 -31 -1 -49 3 -47 10 2 5 19
8 38 7 45 -5 33 6 -15 14 -47 7 -86 -2 -86 -20 0 -20 -77 -42 -100 -28 -15 9
-19 8 -22 -5 -3 -15 -5 -15 -20 1 -10 10 -18 13 -18 7 0 -6 -12 -12 -27 -12
-17 -1 -8 -5 22 -10 28 -5 84 -7 125 -4 99 5 99 5 73 15 -27 11 -32 43 -5 33
23 -9 42 -29 35 -37 -4 -3 11 -5 33 -5 30 2 33 3 12 6 -43 7 -33 19 12 15 22
-2 38 -9 37 -16 -1 -7 23 -12 71 -14 53 -2 72 0 73 10 1 7 3 31 4 53 10 106
12 252 4 272 -7 18 -5 21 11 20 11 -1 20 -5 20 -10 0 -5 7 -6 16 -3 14 5 15 4
5 -8 -7 -8 -20 -12 -29 -9 -14 4 -15 3 -2 -5 8 -6 17 -9 21 -7 10 7 19 -96 11
-140 -10 -59 -4 -92 19 -98 15 -4 19 -13 17 -38 l-3 -34 45 1 c25 1 54 2 65 3
11 2 125 0 254 -2 158 -4 230 -2 220 5 -10 7 -8 8 9 5 18 -4 22 -2 18 9 -3 7
0 13 6 11 7 -1 14 6 16 17 2 11 0 16 -6 12 -15 -9 -22 7 -11 24 6 11 9 12 9 2
0 -7 4 -11 9 -8 5 3 11 -1 15 -9 3 -8 14 -15 24 -15 11 0 25 -7 32 -15 7 -8
26 -15 42 -15 16 0 36 -7 45 -15 14 -14 38 -12 29 3 -2 4 6 8 19 8 16 1 22 -3
18 -12 -3 -8 2 -12 16 -11 27 2 28 34 1 42 -18 6 -29 25 -15 25 17 0 54 -34
48 -44 -4 -6 2 -4 12 4 11 9 16 10 11 2 -5 -8 -1 -11 16 -8 13 1 32 -3 44 -10
22 -15 36 -10 28 11 -4 9 2 11 20 8 17 -4 26 -1 26 7 0 9 4 9 13 2 15 -12 105
-29 130 -24 9 2 15 8 11 13 -3 6 -12 5 -22 -3 -14 -12 -14 -10 -3 10 7 13 9
27 5 30 -4 4 -8 2 -10 -3 -6 -15 -130 -11 -149 5 -15 12 -16 11 -19 -12 0 -7
-7 -13 -13 -12 -42 3 -45 5 -39 19 5 13 0 15 -31 9 -20 -4 -34 -3 -30 2 3 5
-19 9 -49 8 -30 -1 -54 3 -54 7 0 5 8 9 17 9 9 0 14 2 11 5 -2 3 -27 1 -54 -4
-27 -5 -53 -7 -59 -3 -5 3 -18 7 -27 7 -25 2 -28 7 -31 44 -1 17 -8 31 -14 31
-7 0 -13 9 -13 20 0 11 7 20 15 20 8 0 15 -4 15 -8 0 -11 31 -9 49 3 10 5 12
4 7 -3 -4 -7 -1 -12 9 -12 10 0 13 5 9 12 -5 8 0 9 17 4 13 -4 52 -8 86 -9 35
-1 63 -4 63 -7 0 -3 24 -6 53 -6 115 -3 189 -9 193 -16 3 -5 23 -8 45 -8 30 0
38 3 33 13 -5 7 -1 7 10 -2 11 -9 20 -11 24 -5 6 9 20 10 40 4 4 -1 17 -1 30
0 12 1 22 -4 22 -10 0 -8 6 -8 20 0 29 16 24 30 -10 30 -45 0 -37 25 13 38
l42 11 -39 -5 c-26 -4 -42 -1 -47 8 -7 11 -9 11 -9 0 0 -7 -5 -10 -11 -6 -8 4
-8 0 0 -15 8 -14 8 -21 1 -21 -5 0 -10 5 -10 11 0 5 -4 7 -10 4 -5 -3 -10 -2
-10 4 0 6 -12 6 -35 0 -48 -13 -157 -7 -163 9 -2 6 1 12 8 12 6 0 9 -4 5 -10
-3 -5 20 -9 60 -9 36 1 65 4 65 8 0 16 -14 20 -27 10 -7 -6 -13 -7 -13 -2 0 5
-10 10 -22 10 -18 2 -20 0 -8 -7 11 -7 8 -10 -15 -10 -20 0 -26 3 -17 9 8 4
13 12 12 17 -1 5 9 11 22 14 14 4 18 9 11 13 -14 9 -55 -5 -54 -18 1 -6 -26
-11 -59 -13 -33 -2 -60 -8 -60 -13 0 -6 5 -7 10 -4 6 3 10 1 10 -4 0 -6 -16
-11 -35 -11 -30 0 -34 2 -23 14 7 8 16 12 21 9 4 -2 7 1 7 6 0 6 -7 11 -15 11
-8 0 -15 -6 -15 -12 0 -8 -3 -9 -8 -3 -9 13 -112 13 -112 1 0 -5 -3 -6 -7 -3
-3 4 -12 2 -19 -4 -10 -8 -12 -6 -9 10 2 14 -1 18 -10 15 -8 -3 -11 -12 -8
-20 6 -16 2 -17 -22 -8 -13 5 -14 9 -3 15 9 6 4 8 -14 7 -16 -1 -28 -6 -28
-10 0 -4 -8 -8 -17 -7 -11 0 -13 3 -5 6 24 9 12 23 -20 23 -19 0 -28 -4 -21
-8 8 -5 9 -13 3 -22 -8 -13 -10 -12 -10 3 0 23 -1 29 -10 53 -5 13 -4 26 3 34
9 10 9 11 0 6 -8 -4 -14 -2 -14 6 -3 27 -18 -80 -18 -132 -1 -64 -9 -100 -23
-100 -9 0 -6 47 8 135 8 46 7 108 -1 128 -6 13 -3 16 9 11 9 -3 14 -9 11 -13
-2 -4 2 -8 10 -8 19 0 19 5 -1 24 -8 9 -13 22 -10 29 3 8 2 13 -2 12 -4 -1
-20 2 -35 7 -30 8 -32 32 -2 27 17 -3 17 -2 2 21 -15 24 -15 25 5 19 18 -4 19
-2 10 14 -8 15 -7 24 6 39 9 11 13 17 8 13 -16 -13 -34 16 -25 44 5 19 3 30
-7 39 -20 17 -17 31 5 24 12 -3 21 0 25 10 3 8 13 15 23 15 14 0 18 8 18 34 0
19 -4 32 -9 28 -5 -3 -7 4 -4 16 4 13 0 23 -9 26 -24 9 -31 7 -56 -16z m-377
-432 c98 -6 167 -13 215 -20 11 -2 31 1 44 6 21 7 22 7 11 -7 -7 -8 -10 -20
-8 -27 3 -7 2 -22 -3 -33 l-8 -20 0 20 c-1 17 -3 17 -11 5 -5 -8 -10 -10 -10
-4 0 14 -116 18 -125 4 -3 -5 -15 -10 -26 -10 -11 0 -17 4 -14 10 6 10 -20 19
-70 24 -16 1 -29 7 -28 12 1 6 -4 11 -12 11 -8 0 -11 -7 -7 -16 5 -14 3 -14
-11 -2 -9 7 -17 20 -17 27 0 8 -6 14 -14 14 -7 0 -20 8 -27 18 -12 15 -12 16
1 6 8 -6 62 -14 120 -18z m-164 -8 c5 -8 2 -9 -9 -5 -10 3 -17 2 -17 -3 0 -6
10 -10 23 -11 21 -1 21 -1 -3 -9 -22 -7 -21 -8 15 -11 38 -2 38 -2 8 -6 -38
-5 -41 -16 -14 -40 20 -17 78 -22 99 -9 8 4 10 2 6 -8 -5 -12 2 -14 33 -10 21
2 46 7 57 10 12 4 16 2 12 -5 -4 -6 -1 -11 8 -11 8 0 18 -5 22 -12 4 -6 3 -9
-2 -6 -5 3 -18 2 -29 -3 -16 -6 -13 -7 10 -4 17 2 38 4 48 4 10 1 15 6 12 11
-4 6 -11 7 -17 4 -7 -4 -8 -2 -4 5 6 9 11 9 22 0 8 -6 14 -8 14 -5 0 4 5 4 12
0 7 -5 3 -10 -12 -16 -12 -5 -20 -11 -17 -14 10 -10 49 17 44 30 -4 9 2 11 19
8 33 -6 31 -35 -3 -49 l-28 -12 28 6 c20 4 27 2 25 -8 -2 -8 7 -15 20 -17 20
-3 29 -25 9 -23 -4 1 -36 1 -72 1 -61 0 -87 13 -47 23 12 3 10 5 -7 6 -20 1
-22 3 -11 16 16 20 11 24 -20 14 -14 -4 -18 -7 -8 -8 10 -1 15 -8 13 -18 -2
-10 -4 -24 -4 -32 -1 -9 -8 -6 -22 10 l-21 24 6 -25 c3 -14 3 -20 0 -13 -3 7
-11 10 -19 7 -7 -3 -16 -1 -19 4 -3 5 -28 8 -55 6 -34 -3 -52 0 -61 11 -10 12
-10 15 0 15 10 0 10 3 1 14 -10 12 -8 13 8 9 12 -3 18 -10 14 -16 -3 -6 -1 -7
5 -3 7 4 18 4 25 -1 17 -10 37 -13 37 -4 0 4 -19 16 -42 27 -24 11 -42 24 -41
30 1 7 -8 9 -24 6 -19 -4 -22 -7 -11 -13 15 -8 16 -43 4 -126 -4 -27 -2 -45 6
-49 7 -4 8 -3 4 4 -4 8 0 12 10 12 17 0 17 1 0 13 -13 10 -16 18 -10 28 10 16
44 22 44 8 0 -9 42 -5 59 5 5 4 12 2 16 -4 3 -5 -7 -12 -22 -16 -44 -9 -50
-12 -26 -13 12 -1 34 4 50 11 35 15 64 18 57 7 -3 -5 0 -9 6 -9 6 0 9 -4 5 -9
-3 -6 12 -8 35 -7 21 2 37 0 35 -4 -3 -5 2 -11 10 -14 8 -3 14 -11 13 -18 -2
-6 6 -13 17 -15 16 -3 17 -2 5 6 -10 7 -11 11 -3 11 7 0 10 7 7 15 -4 8 -10
13 -14 10 -5 -3 -11 -1 -15 5 -3 5 0 10 9 10 8 0 23 3 33 6 15 5 16 4 3 -6
-12 -9 -10 -10 13 -5 22 4 27 3 21 -7 -5 -7 -7 -21 -6 -30 2 -10 2 -18 0 -18
-2 -1 -19 -3 -39 -6 -21 -3 -40 -1 -43 5 -4 6 -20 8 -36 4 -35 -7 -40 4 -7 16
20 8 18 9 -16 16 -23 5 -48 3 -63 -4 -33 -15 -39 -14 -25 3 14 17 1 28 -19 16
-8 -5 -28 -7 -45 -4 -29 4 -30 4 -5 -7 14 -6 35 -16 46 -21 15 -7 28 -6 42 1
11 6 29 11 39 10 10 0 13 -3 5 -6 -6 -2 -10 -9 -6 -14 3 -5 -22 -9 -57 -9 -47
0 -65 4 -75 18 -12 14 -13 14 -8 1 4 -14 -2 -16 -35 -15 -36 1 -40 3 -36 23 2
12 -1 22 -7 20 -6 -1 -10 30 -11 80 -1 44 -5 79 -9 76 -13 -7 -9 22 5 36 10
11 9 13 -5 8 -10 -4 -18 -2 -18 3 0 6 5 10 10 10 7 0 8 6 2 16 -20 36 13 87
34 52z"/>
<path d="M3777 2774 c-4 -4 -7 -72 -7 -151 l0 -143 30 0 30 0 0 74 c0 95 26
128 73 94 12 -10 17 -32 19 -88 3 -74 4 -75 31 -78 l27 -3 0 85 c0 74 -3 88
-23 111 -17 20 -32 27 -60 27 -21 0 -44 -5 -52 -12 -12 -10 -14 -4 -17 37 -2
39 -7 49 -23 51 -12 2 -24 0 -28 -4z"/>
<path d="M3410 2621 l0 -141 70 0 c82 0 127 18 136 56 7 29 -9 72 -30 80 -12
5 -11 9 5 25 25 25 24 71 -2 95 -16 14 -40 20 -100 23 l-79 3 0 -141z"/>
<path d="M4094 2703 c-81 -16 -99 -173 -25 -213 30 -15 82 -12 103 7 17 15 18
15 18 0 0 -12 9 -17 30 -17 l30 0 0 110 0 110 -30 0 c-16 0 -30 -4 -30 -9 0
-6 -16 -3 -35 5 -19 7 -36 13 -37 13 -2 -1 -13 -4 -24 -6z"/>
<path d="M4300 2590 l0 -110 30 0 29 0 3 77 c3 78 3 78 33 83 24 4 31 11 33
33 3 23 0 27 -20 27 -13 0 -29 -5 -36 -12 -9 -9 -12 -9 -12 0 0 7 -13 12 -30
12 l-30 0 0 -110z"/>
<path d="M1890 1385 l-115 -53 -47 -108 c-26 -60 -48 -117 -48 -126 0 -29 36
-22 151 27 l106 46 51 117 c29 64 52 122 52 128 0 9 -26 27 -33 23 -1 0 -54
-25 -117 -54z"/>
</g>
</svg>
